<svg width="24" height="25" viewBox="0 0 24 25" fill="none" xmlns="http://www.w3.org/2000/svg">
<path fill-rule="evenodd" clip-rule="evenodd" d="M12.0005 2.15393C8.94965 2.15393 6.05208 4.00886 4.84158 6.91967C3.71464 9.62955 4.32729 11.9389 5.59274 13.9062C6.62554 15.5118 8.13245 16.945 9.47688 18.2237C9.73237 18.4667 9.98199 18.7041 10.2214 18.9361L10.223 18.9377C10.7003 19.3974 11.3377 19.6539 12.0005 19.6539C12.6633 19.6539 13.3008 19.3974 13.7781 18.9376C14.0042 18.7198 14.2392 18.4971 14.4795 18.2694L14.4806 18.2684C15.8394 16.9808 17.367 15.5331 18.4106 13.9071C19.6745 11.9379 20.285 9.62621 19.1595 6.91967C17.949 4.00886 15.0514 2.15393 12.0005 2.15393ZM12 6.90393C10.3431 6.90393 9 8.24708 9 9.90393C9 11.5608 10.3431 12.9039 12 12.9039C13.6569 12.9039 15 11.5608 15 9.90393C15 8.24708 13.6569 6.90393 12 6.90393Z" fill="white"/>
<path d="M6 19.6539C6.5212 19.6539 6.94927 20.0526 6.99581 20.5617C7.01311 20.5807 7.04258 20.6092 7.09048 20.647C7.26885 20.7875 7.58893 20.9579 8.07359 21.1194C9.03245 21.4391 10.4207 21.6539 12 21.6539C13.5793 21.6539 14.9675 21.4391 15.9264 21.1194C16.4111 20.9579 16.7311 20.7875 16.9095 20.647C16.9574 20.6092 16.9869 20.5807 17.0042 20.5617C17.0507 20.0526 17.4788 19.6539 18 19.6539C18.5523 19.6539 19 20.1016 19 20.6539C19 21.3678 18.5651 21.8887 18.1475 22.2178C17.7186 22.5558 17.16 22.8164 16.5589 23.0168C15.3462 23.421 13.7344 23.6539 12 23.6539C10.2656 23.6539 8.65384 23.421 7.44113 23.0168C6.84 22.8164 6.2814 22.5558 5.85254 22.2178C5.43495 21.8887 5 21.3678 5 20.6539C5 20.1016 5.44772 19.6539 6 19.6539Z" fill="white"/>
</svg>
