<svg width="37" height="36" viewBox="0 0 37 36" fill="none" xmlns="http://www.w3.org/2000/svg">
<rect x="0.667969" width="36" height="36" rx="18" fill="#E9EBEE"/>
<path d="M22.5707 8.81607C22.2731 9.87607 21.3567 10.5401 20.5267 10.2921C19.6967 10.0441 19.2619 8.99207 19.5635 7.92807C19.8651 6.86407 20.7775 6.20407 21.6075 6.45207C22.4375 6.70007 22.8723 7.75207 22.5707 8.81607ZM18.2127 8.46327C18.1007 9.28327 17.4927 9.87127 16.8487 9.77527C16.2047 9.67927 15.7727 8.94327 15.8847 8.11927C15.9967 7.30327 16.6047 6.71127 17.2487 6.81127C17.8927 6.90327 18.3247 7.64327 18.2127 8.46327ZM14.6671 9.08967C14.6635 9.80607 14.2103 10.3805 13.6463 10.3733C13.0823 10.3661 12.6295 9.78527 12.6327 9.06567C12.6327 8.35287 13.0859 7.77527 13.6499 7.78567C14.2139 7.79607 14.6671 8.37367 14.6671 9.08967ZM11.0175 11.9741C10.7313 11.9808 10.4538 11.8761 10.2433 11.682C10.0329 11.488 9.90601 11.2198 9.8895 10.9341C9.7775 10.2821 10.0975 9.68607 10.6175 9.61007C11.1295 9.52607 11.6415 9.98607 11.7535 10.6381C11.8655 11.2901 11.5335 11.8941 11.0175 11.9741ZM19.1071 19.1281C19.9351 17.9001 21.0671 16.8361 21.0671 14.8001C21.0671 13.2521 20.2671 11.6001 17.0671 11.6001C13.4671 11.6001 11.0671 13.2001 11.0671 15.2001C11.0671 17.6001 12.6671 18.8001 12.6671 21.6001C12.6671 23.6001 12.2671 24.8001 12.2671 26.4001C12.2667 27.0874 12.4878 27.7565 12.8975 28.3083C13.3073 28.8601 13.8839 29.2653 14.5419 29.4637C15.2 29.6621 15.9045 29.6432 16.5509 29.4098C17.1974 29.1765 17.7515 28.741 18.1311 28.1681L19.1071 19.1281Z" fill="#1B3D6D"/>
<path d="M21.8656 29.5999C24.9584 29.5999 27.4656 27.0927 27.4656 23.9999C27.4656 20.9071 24.9584 18.3999 21.8656 18.3999C18.7728 18.3999 16.2656 20.9071 16.2656 23.9999C16.2656 27.0927 18.7728 29.5999 21.8656 29.5999Z" fill="#1B3D6D"/>
<path d="M18.6688 22.8C18.7748 22.8 18.8766 22.8421 18.9516 22.9172C19.0266 22.9922 19.0688 23.0939 19.0688 23.2C19.0688 23.3061 19.1109 23.4078 19.1859 23.4828C19.2609 23.5579 19.3627 23.6 19.4688 23.6C19.5748 23.6 19.6766 23.5579 19.7516 23.4828C19.8266 23.4078 19.8688 23.3061 19.8688 23.2C19.8688 22.8817 19.7423 22.5765 19.5173 22.3515C19.2922 22.1264 18.987 22 18.6688 22C18.3505 22 18.0453 22.1264 17.8202 22.3515C17.5952 22.5765 17.4688 22.8817 17.4688 23.2V24.8C17.4688 25.1183 17.5952 25.4235 17.8202 25.6485C18.0453 25.8736 18.3505 26 18.6688 26C18.987 26 19.2922 25.8736 19.5173 25.6485C19.7423 25.4235 19.8688 25.1183 19.8688 24.8C19.8688 24.6939 19.8266 24.5922 19.7516 24.5172C19.6766 24.4421 19.5748 24.4 19.4688 24.4C19.3627 24.4 19.2609 24.4421 19.1859 24.5172C19.1109 24.5922 19.0688 24.6939 19.0688 24.8C19.0688 24.9061 19.0266 25.0078 18.9516 25.0828C18.8766 25.1579 18.7748 25.2 18.6688 25.2C18.5627 25.2 18.4609 25.1579 18.3859 25.0828C18.3109 25.0078 18.2688 24.9061 18.2688 24.8V23.2C18.2688 23.0939 18.3109 22.9922 18.3859 22.9172C18.4609 22.8421 18.5627 22.8 18.6688 22.8ZM21.8688 22C21.5505 22 21.2453 22.1264 21.0202 22.3515C20.7952 22.5765 20.6688 22.8817 20.6688 23.2V24.8C20.6688 25.1183 20.7952 25.4235 21.0202 25.6485C21.2453 25.8736 21.5505 26 21.8688 26C22.187 26 22.4922 25.8736 22.7173 25.6485C22.9423 25.4235 23.0688 25.1183 23.0688 24.8V23.2C23.0688 22.8817 22.9423 22.5765 22.7173 22.3515C22.4922 22.1264 22.187 22 21.8688 22ZM22.2688 24.8C22.2688 24.9061 22.2266 25.0078 22.1516 25.0828C22.0766 25.1579 21.9748 25.2 21.8688 25.2C21.7627 25.2 21.6609 25.1579 21.5859 25.0828C21.5109 25.0078 21.4688 24.9061 21.4688 24.8V23.2C21.4688 23.0939 21.5109 22.9922 21.5859 22.9172C21.6609 22.8421 21.7627 22.8 21.8688 22.8C21.9748 22.8 22.0766 22.8421 22.1516 22.9172C22.2266 22.9922 22.2688 23.0939 22.2688 23.2V24.8ZM25.4688 25.2H25.0324L25.0395 25.1936C25.2739 25.0389 25.4703 24.8332 25.6139 24.5918C25.7575 24.3505 25.8446 24.0798 25.8688 23.8C25.8688 23.6687 25.8429 23.5386 25.7926 23.4173C25.7424 23.296 25.6687 23.1858 25.5759 23.0929C25.483 23 25.3728 22.9264 25.2514 22.8761C25.1301 22.8259 25.0001 22.8 24.8688 22.8C24.6596 22.7998 24.4552 22.8622 24.2818 22.9791C24.1083 23.096 23.9738 23.2621 23.8956 23.456C23.8766 23.505 23.8676 23.5573 23.8689 23.6098C23.8701 23.6623 23.8818 23.714 23.903 23.7621C23.9243 23.8101 23.9549 23.8535 23.9929 23.8897C24.0309 23.9259 24.0757 23.9543 24.1248 23.9732C24.1738 23.9921 24.226 24.0012 24.2785 23.9999C24.331 23.9986 24.3828 23.987 24.4308 23.9657C24.4788 23.9444 24.5222 23.9139 24.5584 23.8759C24.5947 23.8378 24.623 23.793 24.642 23.744C24.662 23.7008 24.694 23.6642 24.7342 23.6387C24.7744 23.6132 24.8211 23.5997 24.8688 23.6C24.9218 23.6 24.9727 23.6211 25.0102 23.6586C25.0477 23.6961 25.0688 23.747 25.0688 23.8C25.0688 24.0912 24.8604 24.292 24.5168 24.5884C24.3408 24.6987 24.1914 24.8467 24.0794 25.0216C23.9673 25.1965 23.8954 25.394 23.8688 25.6C23.8688 25.7061 23.9109 25.8078 23.9859 25.8828C24.0609 25.9579 24.1627 26 24.2688 26H25.4688C25.5748 26 25.6766 25.9579 25.7516 25.8828C25.8266 25.8078 25.8688 25.7061 25.8688 25.6C25.8688 25.4939 25.8266 25.3922 25.7516 25.3172C25.6766 25.2421 25.5748 25.2 25.4688 25.2Z" fill="white"/>
</svg>
