<svg width="60" height="60" viewBox="0 0 60 60" fill="none" xmlns="http://www.w3.org/2000/svg">
<path d="M40.3125 42.1876V36.9901C39.1689 36.8854 38.085 36.4323 37.2072 35.6919C36.3294 34.9515 35.6999 33.9596 35.4037 32.8501L34.6875 33.5626V38.4376C34.689 39.6803 35.1833 40.8718 36.0621 41.7505C36.9408 42.6293 38.1323 43.1236 39.375 43.1251C39.6236 43.1251 39.8621 43.0263 40.0379 42.8505C40.2137 42.6747 40.3125 42.4362 40.3125 42.1876Z" fill="white"/>
<path d="M22.5098 29.8931C22.686 29.8047 22.8855 29.7741 23.0801 29.8056C23.2746 29.837 23.4543 29.929 23.5936 30.0684L25.312 31.7869V30.9375C25.3107 30.3219 25.4306 29.7121 25.6649 29.1429C25.8992 28.5737 26.2434 28.0562 26.6777 27.6199C27.5548 26.7389 28.746 26.2424 29.9892 26.2397C31.2324 26.237 32.4258 26.7282 33.3068 27.6053C34.1878 28.4825 34.6843 29.6737 34.687 30.9169L35.5355 30.0684C35.6746 29.9278 35.8546 29.8347 36.0498 29.8025C36.245 29.7704 36.4454 29.8008 36.6222 29.8894C36.7991 29.9781 36.9434 30.1204 37.0345 30.296C37.1255 30.4716 37.1587 30.6716 37.1292 30.8672C37.019 31.6461 37.1565 32.4399 37.5222 33.1363C37.888 33.8328 38.4635 34.3965 39.1674 34.7479C39.8712 35.0992 40.6677 35.2203 41.4441 35.0941C42.2206 34.9678 42.9376 34.6006 43.4939 34.0443C44.0501 33.4881 44.4173 32.771 44.5436 31.9946C44.6699 31.2181 44.5487 30.4216 44.1974 29.7178C43.8461 29.014 43.2823 28.4385 42.5859 28.0727C41.8894 27.707 41.0956 27.5695 40.3167 27.6797C40.1211 27.7092 39.9212 27.676 39.7455 27.5849C39.5699 27.4939 39.4276 27.3496 39.3389 27.1727C39.2503 26.9958 39.2199 26.7955 39.252 26.6003C39.2842 26.4051 39.3773 26.225 39.518 26.0859L45.4833 20.1113L41.2814 15.9103C40.8936 16.7224 40.3166 17.4295 39.5989 17.9724C38.8812 18.5152 38.0437 18.878 37.1568 19.0301C36.2698 19.1823 35.3594 19.1195 34.5017 18.8469C33.6441 18.5743 32.8644 18.0999 32.2281 17.4636C31.5918 16.8273 31.1174 16.0476 30.8448 15.19C30.5723 14.3324 30.5094 13.4219 30.6616 12.5349C30.8138 11.648 31.1765 10.8105 31.7194 10.0928C32.2622 9.37513 32.9694 8.79814 33.7814 8.41032L29.5683 4.21313L23.5936 10.1784C23.4545 10.3191 23.2745 10.4122 23.0793 10.4444C22.8841 10.4765 22.6837 10.4461 22.5068 10.3575C22.33 10.2688 22.1857 10.1265 22.0946 9.95089C22.0035 9.77526 21.9704 9.57533 21.9998 9.3797C22.0817 8.80453 22.0287 8.21823 21.8452 7.66702C21.6617 7.11581 21.3526 6.61478 20.9423 6.20345C20.2276 5.52254 19.2783 5.14273 18.2911 5.14273C17.3039 5.14273 16.3546 5.52254 15.6398 6.20345C15.0856 6.76024 14.7202 7.47705 14.5952 8.2527C14.4703 9.02834 14.5921 9.82364 14.9435 10.5263C15.2949 11.229 15.8581 11.8036 16.5536 12.1689C17.2492 12.5343 18.0419 12.6719 18.8198 12.5625C19.0155 12.533 19.2154 12.5662 19.391 12.6573C19.5667 12.7483 19.709 12.8926 19.7976 13.0695C19.8863 13.2464 19.9167 13.4467 19.8845 13.6419C19.8524 13.8371 19.7593 14.0172 19.6186 14.1563L13.6523 20.1188L19.6195 26.0934C19.7603 26.2326 19.8535 26.4127 19.8857 26.608C19.9178 26.8034 19.8873 27.0038 19.7985 27.1808C19.7098 27.3577 19.5673 27.502 19.3915 27.593C19.2156 27.6839 19.0156 27.7169 18.8198 27.6872C18.041 27.577 17.2471 27.7145 16.5507 28.0802C15.8543 28.446 15.2905 29.0215 14.9392 29.7253C14.5878 30.4291 14.4667 31.2256 14.593 32.0021C14.7192 32.7785 15.0865 33.4956 15.6427 34.0518C16.1989 34.6081 16.916 34.9753 17.6925 35.1016C18.4689 35.2278 19.2654 35.1067 19.9692 34.7554C20.673 34.404 21.2486 33.8403 21.6143 33.1438C21.9801 32.4474 22.1176 31.6536 22.0073 30.8747C21.9766 30.679 22.0087 30.4786 22.099 30.3022C22.1893 30.1259 22.3331 29.9827 22.5098 29.8931Z" fill="white"/>
<path d="M33.1088 54.4979L34.0463 52.6229C34.4999 51.7112 34.736 50.7068 34.736 49.6885C34.736 48.6702 34.4999 47.6658 34.0463 46.7541L33.7031 46.066C33.1188 44.8935 32.814 43.6016 32.8125 42.2916V30.9376C32.8125 30.1916 32.5162 29.4763 31.9887 28.9488C31.4613 28.4214 30.7459 28.1251 30 28.1251C29.2541 28.1251 28.5387 28.4214 28.0113 28.9488C27.4838 29.4763 27.1875 30.1916 27.1875 30.9376V44.0626C27.1875 44.3112 27.0887 44.5497 26.9129 44.7255C26.7371 44.9013 26.4986 45.0001 26.25 45.0001C26.0014 45.0001 25.7629 44.9013 25.5871 44.7255C25.4113 44.5497 25.3125 44.3112 25.3125 44.0626V34.4382L23.7244 32.851C23.4048 34.0464 22.6992 35.1026 21.7175 35.8557C20.7357 36.6088 19.5326 37.0165 18.2953 37.0154C18.1959 37.0154 18.0994 37.006 18.0009 37.0013L15.7078 43.6013C15.5185 44.0064 15.4273 44.4505 15.4417 44.8974C15.456 45.3444 15.5754 45.7816 15.7903 46.1738C15.8072 46.2041 15.8223 46.2354 15.8353 46.2676L19.125 54.0526C19.4933 54.74 19.6865 55.5077 19.6875 56.2876V57.1876H32.8125V55.7551C32.8129 55.3188 32.9143 54.8884 33.1088 54.4979ZM57.1875 21.5626H51.5625C51.3139 21.5626 51.0754 21.4638 50.8996 21.288C50.7238 21.1122 50.625 20.8737 50.625 20.6251C50.625 20.3764 50.7238 20.138 50.8996 19.9622C51.0754 19.7863 51.3139 19.6876 51.5625 19.6876H57.1875C57.4361 19.6876 57.6746 19.7863 57.8504 19.9622C58.0262 20.138 58.125 20.3764 58.125 20.6251C58.125 20.8737 58.0262 21.1122 57.8504 21.288C57.6746 21.4638 57.4361 21.5626 57.1875 21.5626ZM50.5491 10.7813C50.3427 10.7813 50.1421 10.7132 49.9784 10.5876C49.8147 10.4619 49.697 10.2858 49.6435 10.0865C49.5901 9.88713 49.604 9.67574 49.683 9.48507C49.7619 9.29441 49.9016 9.13513 50.0803 9.03194L54.9553 6.21944C55.1705 6.09708 55.4254 6.06481 55.6643 6.12968C55.9032 6.19454 56.1068 6.35127 56.2306 6.56567C56.3544 6.78006 56.3883 7.03471 56.325 7.27405C56.2618 7.51339 56.1064 7.71799 55.8928 7.84319L51.0178 10.6557C50.8754 10.7383 50.7137 10.7817 50.5491 10.7813ZM55.4194 35.1563C55.2548 35.1567 55.093 35.1133 54.9506 35.0307L50.0756 32.2182C49.9681 32.1571 49.8738 32.0753 49.7981 31.9776C49.7223 31.8799 49.6666 31.7682 49.6342 31.6488C49.6018 31.5295 49.5934 31.405 49.6093 31.2824C49.6252 31.1598 49.6653 31.0415 49.7271 30.9344C49.7889 30.8274 49.8713 30.7336 49.9695 30.6585C50.0677 30.5834 50.1798 30.5284 50.2994 30.4968C50.4189 30.4652 50.5435 30.4576 50.666 30.4743C50.7885 30.4911 50.9065 30.5319 51.0131 30.5944L55.8881 33.4069C56.0668 33.5101 56.2065 33.6694 56.2855 33.8601C56.3644 34.0507 56.3783 34.2621 56.3249 34.4615C56.2715 34.6608 56.1538 34.8369 55.9901 34.9626C55.8263 35.0882 55.6257 35.1563 55.4194 35.1563ZM8.4375 21.5626H2.8125C2.56386 21.5626 2.3254 21.4638 2.14959 21.288C1.97377 21.1122 1.875 20.8737 1.875 20.6251C1.875 20.3764 1.97377 20.138 2.14959 19.9622C2.3254 19.7863 2.56386 19.6876 2.8125 19.6876H8.4375C8.68614 19.6876 8.9246 19.7863 9.10041 19.9622C9.27623 20.138 9.375 20.3764 9.375 20.6251C9.375 20.8737 9.27623 21.1122 9.10041 21.288C8.9246 21.4638 8.68614 21.5626 8.4375 21.5626ZM9.45094 10.7813C9.28632 10.7817 9.12457 10.7383 8.98219 10.6557L4.10719 7.84319C3.89362 7.71799 3.73824 7.51339 3.67496 7.27405C3.61169 7.03471 3.64565 6.78006 3.76943 6.56567C3.89321 6.35127 4.09677 6.19454 4.33569 6.12968C4.5746 6.06481 4.82948 6.09708 5.04469 6.21944L9.91969 9.03194C10.0984 9.13513 10.2381 9.29441 10.317 9.48507C10.396 9.67574 10.4099 9.88713 10.3565 10.0865C10.303 10.2858 10.1853 10.4619 10.0216 10.5876C9.8579 10.7132 9.65731 10.7813 9.45094 10.7813ZM4.58063 35.1563C4.37426 35.1563 4.17366 35.0882 4.00994 34.9626C3.84622 34.8369 3.72852 34.6608 3.67511 34.4615C3.6217 34.2621 3.63555 34.0507 3.71452 33.8601C3.79349 33.6694 3.93316 33.5101 4.11188 33.4069L8.98688 30.5944C9.09354 30.5319 9.21151 30.4911 9.33401 30.4743C9.45651 30.4576 9.58111 30.4652 9.70064 30.4968C9.82017 30.5284 9.93227 30.5834 10.0305 30.6585C10.1287 30.7336 10.2111 30.8274 10.2729 30.9344C10.3347 31.0415 10.3748 31.1598 10.3907 31.2824C10.4066 31.405 10.3982 31.5295 10.3658 31.6488C10.3334 31.7682 10.2777 31.8799 10.2019 31.9776C10.1262 32.0753 10.0319 32.1571 9.92438 32.2182L5.04938 35.0307C4.907 35.1133 4.74524 35.1567 4.58063 35.1563Z" fill="white"/>
</svg>
