<svg width="37" height="36" viewBox="0 0 37 36" fill="none" xmlns="http://www.w3.org/2000/svg">
<rect x="0.335938" width="36" height="36" rx="18" fill="#E9EBEE"/>
<path d="M28.3359 26C28.3359 26.3956 28.2186 26.7822 27.9989 27.1111C27.7791 27.44 27.4668 27.6964 27.1013 27.8478C26.7359 27.9991 26.3337 28.0387 25.9458 27.9616C25.5578 27.8844 25.2014 27.6939 24.9217 27.4142C24.642 27.1345 24.4515 26.7781 24.3744 26.3902C24.2972 26.0022 24.3368 25.6001 24.4882 25.2346C24.6396 24.8692 24.8959 24.5568 25.2248 24.3371C25.5537 24.1173 25.9404 24 26.3359 24C26.8664 24 27.3751 24.2107 27.7502 24.5858C28.1252 24.9609 28.3359 25.4696 28.3359 26ZM10.3359 25C10.7315 25 11.1182 24.8827 11.4471 24.6629C11.776 24.4432 12.0323 24.1308 12.1837 23.7654C12.3351 23.3999 12.3747 22.9978 12.2975 22.6098C12.2203 22.2219 12.0299 21.8655 11.7502 21.5858C11.4704 21.3061 11.1141 21.1156 10.7261 21.0384C10.3382 20.9613 9.93602 21.0009 9.57057 21.1522C9.20512 21.3036 8.89276 21.56 8.673 21.8889C8.45324 22.2178 8.33594 22.6044 8.33594 23C8.33594 23.5304 8.54665 24.0391 8.92172 24.4142C9.2968 24.7893 9.8055 25 10.3359 25ZM26.3359 8C25.9404 8 25.5537 8.1173 25.2248 8.33706C24.8959 8.55682 24.6396 8.86918 24.4882 9.23463C24.3368 9.60009 24.2972 10.0022 24.3744 10.3902C24.4515 10.7781 24.642 11.1345 24.9217 11.4142C25.2014 11.6939 25.5578 11.8844 25.9458 11.9616C26.3337 12.0387 26.7359 11.9991 27.1013 11.8478C27.4668 11.6964 27.7791 11.44 27.9989 11.1111C28.2186 10.7822 28.3359 10.3956 28.3359 10C28.3359 9.46957 28.1252 8.96086 27.7502 8.58579C27.3751 8.21071 26.8664 8 26.3359 8ZM11.8499 8.043C11.0817 7.9118 10.2925 8.08474 9.64949 8.52521C9.00649 8.96568 8.56015 9.6391 8.40497 10.4029C8.2498 11.1667 8.39796 11.9609 8.8181 12.6174C9.23824 13.2738 9.89737 13.741 10.6559 13.92C11.4047 14.0982 12.1935 13.9747 12.8519 13.576L14.0419 14.765C14.3004 15.0227 14.4826 15.3467 14.5686 15.7014C14.6545 16.0561 14.6408 16.4276 14.5289 16.775C14.4011 17.1708 14.336 17.5841 14.3359 18C14.3359 18.1207 14.3416 18.24 14.3529 18.358C14.3829 18.7189 14.3119 19.081 14.1478 19.4038C13.9837 19.7266 13.7331 19.9975 13.4239 20.186L12.8339 20.556C13.185 20.9196 13.4532 21.3549 13.6199 21.832L14.2239 21.454C14.5366 21.2597 14.897 21.1556 15.2651 21.1533C15.6332 21.151 15.9949 21.2506 16.3099 21.441C16.9221 21.8076 17.6224 22.0008 18.3359 22C18.7518 22.0003 19.1651 21.9355 19.5609 21.808C19.9084 21.6963 20.28 21.6827 20.6347 21.7688C20.9894 21.855 21.3134 22.0374 21.5709 22.296L23.3939 24.119C23.6669 23.6935 24.0285 23.332 24.4539 23.059L22.6319 21.235C22.3733 20.9774 22.1909 20.6534 22.1048 20.2987C22.0187 19.9441 22.0322 19.5725 22.1439 19.225C22.3995 18.4283 22.3995 17.5717 22.1439 16.775C22.0322 16.4275 22.0187 16.0559 22.1048 15.7013C22.1909 15.3466 22.3733 15.0226 22.6319 14.765L24.4549 12.941C24.0295 12.668 23.6679 12.3065 23.3949 11.881L21.5709 13.704C21.3133 13.9624 20.9892 14.1447 20.6345 14.2306C20.2799 14.3166 19.9083 14.3028 19.5609 14.191C18.7643 13.9354 17.9076 13.9354 17.1109 14.191C16.7636 14.3028 16.392 14.3166 16.0373 14.2306C15.6827 14.1447 15.3586 13.9624 15.1009 13.704L13.9109 12.514C14.3094 11.8563 14.4333 11.0683 14.2559 10.32C14.1192 9.74801 13.8188 9.2282 13.3916 8.82404C12.9643 8.41988 12.4286 8.14784 11.8499 8.043Z" fill="#1B3D6D"/>
</svg>
