<svg width="41" height="41" viewBox="0 0 41 41" fill="none" xmlns="http://www.w3.org/2000/svg">
<g filter="url(#filter0_b_2726_41780)">
<ellipse cx="20.25" cy="20.2747" rx="20.25" ry="20.2747" fill="white" fill-opacity="0.24"/>
</g>
<path d="M20.249 17.2232C19.4391 17.2232 18.6624 17.545 18.0897 18.1176C17.517 18.6903 17.1953 19.4671 17.1953 20.277C17.1953 21.0868 17.517 21.8636 18.0897 22.4363C18.6624 23.0089 19.4391 23.3307 20.249 23.3307C21.0589 23.3307 21.8357 23.0089 22.4083 22.4363C22.981 21.8636 23.3027 21.0868 23.3027 20.277C23.3027 19.4671 22.981 18.6903 22.4083 18.1176C21.8357 17.545 21.0589 17.2232 20.249 17.2232Z" fill="white"/>
<path fill-rule="evenodd" clip-rule="evenodd" d="M15.3362 11.8975C18.6023 11.5355 21.8984 11.5355 25.1645 11.8975C26.9488 12.0967 28.3873 13.5014 28.5968 15.2923C28.9842 18.6041 28.9842 21.9497 28.5968 25.2615C28.3873 27.0524 26.9488 28.4571 25.1654 28.6572C21.899 29.0194 18.6026 29.0194 15.3362 28.6572C13.5519 28.4571 12.1133 27.0524 11.9038 25.2624C11.5164 21.9504 11.5164 18.6044 11.9038 15.2923C12.1133 13.5014 13.5519 12.0967 15.3362 11.8975ZM24.9484 14.6393C24.6992 14.6393 24.4602 14.7383 24.284 14.9145C24.1077 15.0907 24.0087 15.3297 24.0087 15.5789C24.0087 15.8281 24.1077 16.0671 24.284 16.2433C24.4602 16.4195 24.6992 16.5185 24.9484 16.5185C25.1976 16.5185 25.4365 16.4195 25.6128 16.2433C25.789 16.0671 25.888 15.8281 25.888 15.5789C25.888 15.3297 25.789 15.0907 25.6128 14.9145C25.4365 14.7383 25.1976 14.6393 24.9484 14.6393ZM15.7872 20.2769C15.7872 19.0932 16.2574 17.958 17.0944 17.121C17.9314 16.284 19.0666 15.8138 20.2503 15.8138C21.434 15.8138 22.5692 16.284 23.4062 17.121C24.2432 17.958 24.7135 19.0932 24.7135 20.2769C24.7135 21.4606 24.2432 22.5958 23.4062 23.4328C22.5692 24.2698 21.434 24.74 20.2503 24.74C19.0666 24.74 17.9314 24.2698 17.0944 23.4328C16.2574 22.5958 15.7872 21.4606 15.7872 20.2769Z" fill="white"/>
<defs>
<filter id="filter0_b_2726_41780" x="-10" y="-10" width="60.5" height="60.5495" filterUnits="userSpaceOnUse" color-interpolation-filters="sRGB">
<feFlood flood-opacity="0" result="BackgroundImageFix"/>
<feGaussianBlur in="BackgroundImageFix" stdDeviation="5"/>
<feComposite in2="SourceAlpha" operator="in" result="effect1_backgroundBlur_2726_41780"/>
<feBlend mode="normal" in="SourceGraphic" in2="effect1_backgroundBlur_2726_41780" result="shape"/>
</filter>
</defs>
</svg>
