<svg width="47" height="61" viewBox="0 0 47 61" fill="none" xmlns="http://www.w3.org/2000/svg">
<path d="M37.0509 8.52351C29.1655 4.01198 21.0113 3.05161 16.9262 12.9595C13.7794 20.5919 18.985 31.2357 27.9935 31.2256C30.1519 31.2231 31.8244 28.7125 32.1575 26.7811C32.6844 23.7257 31.0344 21.5806 28.2673 20.3778C23.2409 18.1928 15.452 19.4749 13.1546 25.0227C9.55948 33.7045 14.3199 43.2985 20.6206 49.4994" stroke="#1B3D6D" strokeWidth="1.5" strokeLinecap="round" stroke-dasharray="4.52 4.52"/>
<g clipPath="url(#clip0_12_7797)">
<path d="M24.5267 43.7593L25.6034 44.6966L24.2698 51.1072L27.0488 53.5264C27.0488 53.5264 28.6639 54.9323 28.0082 55.6855C27.3521 56.4392 25.7371 55.0332 25.7371 55.0332L22.9581 52.6141L16.7928 54.8176L15.7161 53.8803L20.8047 50.7395L18.8736 49.0585L16.724 49.0808L15.6473 48.1435L18.1026 47.0634L18.8346 44.4822L19.9113 45.4195L20.1854 47.5516L22.1164 49.2327L24.5267 43.7593Z" fill="#1B3D6D"/>
</g>
<defs>
<clipPath id="clip0_12_7797">
<rect width="14.2752" height="14.2752" fill="white" transform="matrix(0.796825 0.604211 0.604211 -0.796825 12.6211 52.3738)"/>
</clipPath>
</defs>
</svg>
