<svg width="47" height="61" viewBox="0 0 47 61" fill="none" xmlns="http://www.w3.org/2000/svg">
<path d="M9.94127 8.52351C17.8267 4.01198 25.9809 3.05161 30.0659 12.9595C33.2128 20.5919 28.0072 31.2357 18.9987 31.2256C16.8403 31.2231 15.1678 28.7125 14.8347 26.7811C14.3078 23.7257 15.9578 21.5806 18.7248 20.3778C23.7513 18.1928 31.5402 19.4749 33.8376 25.0227C37.4327 33.7045 32.6723 43.2985 26.3716 49.4994" stroke="#1B3D6D" strokeWidth="1.5" strokeLinecap="round" stroke-dasharray="4.52 4.52"/>
<g clipPath="url(#clip0_12_7793)">
<path d="M22.4655 43.7593L21.3888 44.6966L22.7223 51.1072L19.9434 53.5264C19.9434 53.5264 18.3283 54.9323 18.984 55.6855C19.6401 56.4392 21.2551 55.0332 21.2551 55.0332L24.0341 52.6141L30.1994 54.8176L31.2761 53.8803L26.1875 50.7395L28.1186 49.0585L30.2681 49.0808L31.3448 48.1435L28.8895 47.0634L28.1576 44.4822L27.0809 45.4195L26.8068 47.5516L24.8758 49.2327L22.4655 43.7593Z" fill="#1B3D6D"/>
</g>
<defs>
<clipPath id="clip0_12_7793">
<rect width="14.2752" height="14.2752" fill="white" transform="translate(34.3711 52.3738) rotate(142.828)"/>
</clipPath>
</defs>
</svg>
