<svg width="40" height="40" viewBox="0 0 40 40" fill="none" xmlns="http://www.w3.org/2000/svg">
<path d="M0 12.5C0 5.59644 5.59644 0 12.5 0H27.5C34.4036 0 40 5.59644 40 12.5V27.5C40 34.4036 34.4036 40 27.5 40H12.5C5.59644 40 0 34.4036 0 27.5V12.5Z" fill="#C0CF32"/>
<g clipPath="url(#clip0_2618_13014)">
<path d="M19.2704 7.5H20.7352V9.31333H19.2704V7.5ZM13.5779 9.41777L14.8464 8.68535L15.7531 10.2557L14.4845 10.9881L13.5779 9.41777ZM9.60708 13.9248L10.3395 12.6562L11.9098 13.563L11.1774 14.8315L9.60708 13.9248ZM8.42188 18.3485H10.2352V19.8133H8.42188V18.3485ZM24.2522 10.2561L25.1589 8.68579L26.4274 9.41821L25.5208 10.9885L24.2522 10.2561ZM28.0951 13.5628L29.6654 12.6562L30.3978 13.9247L28.8275 14.8313L28.0951 13.5628ZM29.7704 18.3485H31.5837V19.8133H29.7704V18.3485ZM28.4291 19.0809C28.4291 16.8352 27.556 14.7225 25.9706 13.132C24.3855 11.542 22.2764 10.6621 20.0316 10.6546L20.0025 10.6545C17.7573 10.6545 15.6458 11.5271 14.0545 13.1131C12.4564 14.7059 11.5764 16.8254 11.5764 19.0812C11.5756 20.3338 11.8543 21.5708 12.3923 22.7019C12.9303 23.8331 13.714 24.8299 14.6862 25.6197H19.2704V21.4646C18.2518 21.1509 17.5094 20.201 17.5094 19.081C17.5094 17.7061 18.6279 16.5876 20.0028 16.5876C21.3776 16.5876 22.4961 17.7061 22.4961 19.081C22.4961 20.201 21.7538 21.1509 20.7352 21.4646V25.6197H25.3193C26.2916 24.8299 27.0753 23.833 27.6133 22.7018C28.1513 21.5706 28.43 20.3335 28.4291 19.0809Z" fill="white"/>
<path d="M20.0051 20.1094C20.5731 20.1094 21.0336 19.6489 21.0336 19.0809C21.0336 18.5129 20.5731 18.0524 20.0051 18.0524C19.437 18.0524 18.9766 18.5129 18.9766 19.0809C18.9766 19.6489 19.437 20.1094 20.0051 20.1094Z" fill="white"/>
<path d="M15.6367 27.0844H24.3698V28.7933H15.6367V27.0844ZM20.0032 32.4998C21.3762 32.4998 22.5296 31.5412 22.8292 30.2582H17.1773C17.4769 31.5412 18.6302 32.4998 20.0032 32.4998Z" fill="white"/>
</g>
<defs>
<clipPath id="clip0_2618_13014">
<rect width="25" height="25" fill="white" transform="translate(7.5 7.5)"/>
</clipPath>
</defs>
</svg>
