<svg width="60" height="60" viewBox="0 0 60 60" fill="none" xmlns="http://www.w3.org/2000/svg">
<path d="M46.4928 21.5167C48.104 24.4281 49.023 27.7737 49.023 31.3301C49.023 42.5419 39.9016 51.6633 28.6898 51.6633C17.478 51.6633 8.35672 42.5419 8.35672 31.3302C8.35672 20.1186 17.478 10.9971 28.6898 10.9971C32.1569 10.9971 35.4236 11.8703 38.2829 13.4068L42.47 9.21973C38.3762 6.65742 33.6386 5.28516 28.6897 5.28516C21.7329 5.28516 15.1923 7.9943 10.273 12.9136C5.35367 17.8329 2.64453 24.3734 2.64453 31.3303C2.64453 38.2871 5.35367 44.8277 10.273 49.7469C15.1924 54.6663 21.7329 57.3755 28.6897 57.3755C35.6465 57.3755 42.1871 54.6663 47.1063 49.7469C52.0257 44.8276 54.7348 38.2871 54.7348 31.3303C54.7348 26.297 53.3159 21.4821 50.6686 17.3409L46.4928 21.5167Z" fill="white"/>
<path d="M30.6838 26.5172C28.8089 25.7489 26.5656 26.118 25.045 27.6388C23.0162 29.6675 23.0162 32.9401 25.045 34.9532C27.0729 36.9811 30.3455 36.9811 32.3583 34.9532C33.8799 33.4314 34.2482 31.1883 33.4799 29.3143L48.3379 14.4564L50.8123 14.7789L57.3573 8.23301L52.4103 7.57289L51.7492 2.625L45.2034 9.18586L45.5267 11.6595L30.6838 26.5172Z" fill="white"/>
<path d="M38.3771 29.6312C38.4752 30.1923 38.5245 30.7608 38.5244 31.3303C38.5244 36.7539 34.1121 41.1662 28.6885 41.1662C23.265 41.1662 18.8526 36.754 18.8526 31.3303C18.8526 25.9069 23.2649 21.4945 28.6885 21.4945C29.1654 21.4945 29.6343 21.5293 30.0933 21.5952L34.6975 16.991C32.8479 16.213 30.8177 15.7825 28.6885 15.7825C20.1154 15.7825 13.1406 22.7572 13.1406 31.3303C13.1406 39.9034 20.1154 46.8783 28.6885 46.8783C37.2616 46.8783 44.2364 39.9034 44.2364 31.3303C44.2364 29.1095 43.7673 26.9965 42.9248 25.0835L38.3771 29.6312Z" fill="white"/>
</svg>
