<svg width="19" height="18" viewBox="0 0 19 18" fill="none" xmlns="http://www.w3.org/2000/svg">
<path d="M9.5 5.25H6.125C5.62772 5.25 5.15081 5.05246 4.79917 4.70083C4.44754 4.34919 4.25 3.87228 4.25 3.375C4.25 2.87772 4.44754 2.40081 4.79917 2.04917C5.15081 1.69754 5.62772 1.5 6.125 1.5C8.75 1.5 9.5 5.25 9.5 5.25ZM9.5 5.25H12.875C13.3723 5.25 13.8492 5.05246 14.2008 4.70083C14.5525 4.34919 14.75 3.87228 14.75 3.375C14.75 2.87772 14.5525 2.40081 14.2008 2.04917C13.8492 1.69754 13.3723 1.5 12.875 1.5C10.25 1.5 9.5 5.25 9.5 5.25ZM9.5 5.25L9.5 16.5M2 10.5H17M2 7.65L2 14.1C2 14.9401 2 15.3601 2.16349 15.681C2.3073 15.9632 2.53677 16.1927 2.81901 16.3365C3.13988 16.5 3.55992 16.5 4.4 16.5L14.6 16.5C15.4401 16.5 15.8601 16.5 16.181 16.3365C16.4632 16.1927 16.6927 15.9632 16.8365 15.681C17 15.3601 17 14.9401 17 14.1V7.65C17 6.80992 17 6.38988 16.8365 6.06902C16.6927 5.78677 16.4632 5.5573 16.181 5.41349C15.8601 5.25 15.4401 5.25 14.6 5.25L4.4 5.25C3.55992 5.25 3.13988 5.25 2.81901 5.41349C2.53677 5.5573 2.3073 5.78677 2.16349 6.06901C2 6.38988 2 6.80992 2 7.65Z" stroke="#838799" strokeWidth="1.5" strokeLinecap="round" strokeLinejoin="round"/>
</svg>
