<svg width="54" height="44" viewBox="0 0 54 44" fill="none" xmlns="http://www.w3.org/2000/svg">
<path fill-rule="evenodd" clip-rule="evenodd" d="M27.6829 0.0874271C23.3201 -0.0589734 19.0213 1.16653 15.3915 3.59143C11.3104 6.31993 8.3215 10.3996 6.95021 15.1134C6.57888 15.0681 6.13421 15.0881 5.60621 15.2374C3.63488 15.7974 2.15288 17.4121 1.48621 18.8348C0.62088 20.6888 0.256214 23.1414 0.64088 25.6721C1.02288 28.1954 2.08888 30.2754 3.42221 31.5668C4.75955 32.8588 6.26955 33.2788 7.76955 32.9634C10.0029 32.4868 11.1102 32.1301 10.7975 30.0501L9.28421 19.9634C9.43791 17.2182 10.2278 14.5462 11.5914 12.1587C12.955 9.77109 14.8551 7.73325 17.1415 6.20609C20.2229 4.14466 23.8731 3.10128 27.5785 3.22278C31.2838 3.34428 34.8578 4.62455 37.7975 6.88343C39.8272 8.43956 41.4962 10.4163 42.69 12.6781C43.8839 14.9398 44.5744 17.4331 44.7142 19.9868L43.6555 27.0421C42.5069 30.1909 40.4891 32.9495 37.8361 34.9979C35.1832 37.0464 32.0038 38.3007 28.6669 38.6154H24.1562C23.8802 38.6148 23.6068 38.6687 23.3517 38.774C23.0965 38.8793 22.8647 39.0339 22.6694 39.2291C22.4742 39.4242 22.3194 39.6559 22.214 39.911C22.1085 40.166 22.0544 40.4394 22.0549 40.7154V41.8234C22.0544 42.0995 22.1084 42.373 22.2138 42.6281C22.3192 42.8832 22.474 43.1151 22.6692 43.3102C22.8645 43.5054 23.0963 43.6601 23.3515 43.7655C23.6067 43.8708 23.8801 43.9247 24.1562 43.9241H29.8435C30.1193 43.9245 30.3924 43.8705 30.6472 43.7651C30.902 43.6597 31.1335 43.5049 31.3283 43.3098C31.5231 43.1147 31.6775 42.883 31.7825 42.628C31.8875 42.373 31.9411 42.0998 31.9402 41.8241V41.2441C37.05 39.9929 41.5017 36.8641 44.4095 32.4801L46.2315 32.9634C47.7142 33.3481 49.2422 32.8581 50.5789 31.5668C51.9122 30.2748 52.9776 28.1954 53.3602 25.6721C53.7469 23.1408 53.3709 20.6928 52.5162 18.8348C51.6582 16.9768 50.3802 15.7968 48.9049 15.3734C48.2869 15.1954 47.6162 15.1301 47.0409 15.1134C45.8025 10.8501 43.2358 7.0934 39.7142 4.39009C36.2526 1.73267 32.0447 0.227825 27.6829 0.0874271Z" fill="white"/>
<path fill-rule="evenodd" clip-rule="evenodd" d="M34.3411 18.2335C35.0635 18.2344 35.7562 18.5218 36.267 19.0328C36.7778 19.5437 37.065 20.2364 37.0657 20.9588C37.0645 21.6813 36.777 22.3737 36.2661 22.8846C35.7553 23.3954 35.0628 23.6829 34.3404 23.6842C33.6172 23.6843 32.9235 23.3974 32.4117 22.8864C31.8999 22.3754 31.612 21.6821 31.6111 20.9588C31.6112 20.6006 31.682 20.246 31.8193 19.9151C31.9565 19.5842 32.1576 19.2836 32.4111 19.0305C32.6645 18.7773 32.9654 18.5766 33.2964 18.4397C33.6274 18.3029 33.9822 18.2326 34.3404 18.2328L34.3411 18.2335ZM27.0011 18.2335C27.54 18.2338 28.0668 18.3938 28.5148 18.6934C28.9627 18.993 29.3119 19.4187 29.5179 19.9167C29.724 20.4146 29.7778 20.9625 29.6726 21.4911C29.5673 22.0197 29.3077 22.5051 28.9266 22.8862C28.5455 23.2672 28.0599 23.5267 27.5313 23.6318C27.0028 23.7369 26.4549 23.683 25.957 23.4768C25.459 23.2706 25.0334 22.9214 24.7339 22.4733C24.4345 22.0252 24.2745 21.4984 24.2744 20.9595C24.2741 20.6013 24.3443 20.2466 24.4812 19.9156C24.6182 19.5847 24.819 19.2839 25.0722 19.0307C25.3255 18.7774 25.6262 18.5766 25.9572 18.4397C26.2882 18.3028 26.6429 18.2332 27.0011 18.2335ZM19.6631 18.2335C20.026 18.2255 20.387 18.29 20.7246 18.4234C21.0623 18.5567 21.37 18.7562 21.6295 19.0101C21.889 19.2639 22.0953 19.5671 22.236 19.9017C22.3768 20.2364 22.4494 20.5958 22.4494 20.9588C22.4494 21.3219 22.3768 21.6813 22.236 22.0159C22.0953 22.3506 21.889 22.6537 21.6295 22.9076C21.37 23.1615 21.0623 23.3609 20.7246 23.4943C20.387 23.6276 20.026 23.6922 19.6631 23.6842C18.9476 23.673 18.2651 23.3809 17.7631 22.8709C17.2611 22.361 16.9797 21.6741 16.9797 20.9585C16.9797 20.2429 17.2611 19.556 17.7631 19.0461C18.2651 18.5361 18.9476 18.2447 19.6631 18.2335ZM27.0011 6.52417C19.0077 6.52417 12.5664 12.7535 12.5664 20.9582C12.5664 24.8988 14.0564 28.3815 16.4837 30.9368L15.6224 34.7982C15.3384 36.0688 16.2197 36.9235 17.3624 36.2875L21.1324 34.1842C22.9848 34.9862 24.9825 35.3979 27.0011 35.3935C34.9971 35.3935 41.4344 29.1682 41.4344 20.9602C41.4344 12.7548 34.9971 6.5255 27.0011 6.5255V6.52417Z" fill="white"/>
</svg>
