<svg width="60" height="54" viewBox="0 0 60 54" fill="none" xmlns="http://www.w3.org/2000/svg">
<path d="M59.406 28.0591C58.6786 27.4164 57.5675 27.4855 56.9249 28.2129L56.8965 28.2449V27.0131C56.8965 19.8289 54.0987 13.0746 49.0183 7.99441C43.9385 2.91445 37.1843 0.117188 30.0001 0.117188C25.6605 0.117188 21.3484 1.17551 17.5292 3.1773C13.8342 5.11418 10.5909 7.9316 8.15014 11.3259C7.58342 12.1138 7.76283 13.2124 8.55115 13.7791C9.33936 14.3463 10.438 14.1669 11.0047 13.3786C13.1278 10.4261 15.9486 7.97508 19.1617 6.29109C22.479 4.55203 26.2267 3.63281 30.0001 3.63281C42.8921 3.63281 53.3809 14.1216 53.3809 27.0136V28.2453L53.3521 28.2134C52.7093 27.4855 51.5983 27.4168 50.871 28.0595C50.1431 28.7023 50.0744 29.8132 50.7171 30.5406L53.8208 34.0545C53.9858 34.2411 54.1886 34.3906 54.4157 34.4929C54.6428 34.5953 54.8891 34.6482 55.1382 34.6481C55.3873 34.6482 55.6336 34.5953 55.8608 34.4929C56.0879 34.3906 56.2907 34.2411 56.4556 34.0545L59.5592 30.5406C60.2025 29.8129 60.1338 28.7018 59.406 28.0591ZM51.449 40.241C50.6608 39.6744 49.5627 39.8534 48.9955 40.6417C46.8724 43.5938 44.0516 46.0446 40.8385 47.7292C37.5212 49.4682 33.773 50.3875 30.0001 50.3875C17.1081 50.3875 6.61932 39.8987 6.61932 27.0067V25.7748L6.64815 25.8074C7.29092 26.5348 8.40186 26.6039 9.12924 25.9607C9.85709 25.318 9.92576 24.207 9.28311 23.4796L6.1794 19.9658C6.01449 19.779 5.81174 19.6294 5.58461 19.527C5.35747 19.4245 5.11115 19.3715 4.86197 19.3715C4.6128 19.3715 4.36647 19.4245 4.13934 19.527C3.91221 19.6294 3.70946 19.779 3.54455 19.9658L0.44049 23.4796C-0.202284 24.2074 -0.133612 25.318 0.59424 25.9607C0.91485 26.2452 1.32879 26.4021 1.75744 26.4015C2.24365 26.4015 2.72787 26.2005 3.07533 25.8074L3.10369 25.7748V27.0067C3.10369 34.1913 5.90154 40.9451 10.9819 46.0254C16.0617 51.1057 22.8159 53.9031 30.0001 53.9031C34.3392 53.9031 38.6518 52.8447 42.471 50.8429C46.1655 48.9061 49.4088 46.0881 51.8496 42.6942C52.4163 41.906 52.2374 40.8077 51.449 40.241Z" fill="white"/>
<path d="M12.6616 31.5106C12.6017 31.7336 12.5864 31.9661 12.6166 32.1949C12.6468 32.4238 12.7218 32.6444 12.8374 32.8442L16.353 38.9338C16.5861 39.3374 16.97 39.632 17.4203 39.7526C17.8705 39.8732 18.3503 39.81 18.7539 39.5769L21.339 38.0846C22.372 38.8916 23.512 39.5513 24.7264 40.0448V43.0252C24.7264 43.9958 25.5133 44.783 26.4842 44.783H33.5155C34.4859 44.783 35.2733 43.9958 35.2733 43.0252V40.0448C36.4877 39.5513 37.6277 38.8916 38.6607 38.0846L41.2457 39.577C41.6494 39.81 42.129 39.8732 42.5792 39.7528C42.8022 39.693 43.0113 39.59 43.1945 39.4494C43.3776 39.3089 43.5313 39.1337 43.6468 38.9338L47.1624 32.8442C47.3954 32.4405 47.4586 31.9609 47.3382 31.5106C47.2173 31.0603 46.9227 30.6764 46.5191 30.4432L43.9287 28.9477C44.0176 28.3059 44.0624 27.6563 44.0624 27.0068C44.0624 26.3493 44.0167 25.6934 43.9256 25.0443L46.5193 23.547C46.923 23.3138 47.2176 22.9298 47.3382 22.4795C47.4588 22.0291 47.3956 21.5493 47.1624 21.1455L43.6468 15.0564C43.1616 14.216 42.0863 13.9279 41.2458 14.4132L38.6439 15.9155C37.6153 15.1147 36.481 14.4596 35.2733 13.9688V10.9648C35.2733 9.99453 34.4864 9.20703 33.5155 9.20703H26.4842C25.5133 9.20703 24.7264 9.99453 24.7264 10.9648V13.9688C23.5188 14.4597 22.3848 15.1148 21.3563 15.9158L18.7539 14.4134C17.9135 13.9277 16.8383 14.2161 16.353 15.0564L12.8374 21.1456C12.6042 21.5494 12.541 22.0292 12.6616 22.4795C12.7823 22.9298 13.0768 23.3138 13.4805 23.547L16.0742 25.0445C15.983 25.6946 15.9373 26.3503 15.9373 27.0068C15.9373 27.6563 15.9822 28.3054 16.0709 28.9477L13.4811 30.4432C13.281 30.5585 13.1057 30.7122 12.9651 30.8954C12.8245 31.0786 12.7213 31.2876 12.6616 31.5106ZM29.9998 21.7334C32.9122 21.7334 35.2733 24.0945 35.2733 27.0069C35.2733 29.9192 32.9122 32.2803 29.9998 32.2803C27.0871 32.2803 24.7264 29.9192 24.7264 27.0069C24.7264 24.0945 27.0875 21.7334 29.9998 21.7334Z" fill="white"/>
</svg>
