<svg width="177" height="60" viewBox="0 0 177 60" fill="none" xmlns="http://www.w3.org/2000/svg">
<g clipPath="url(#clip0_2581_2638)">
<path fill-rule="evenodd" clip-rule="evenodd" d="M0.0195312 0.00634766H67.4583V59.992H0.0195312V0.00634766Z" fill="#1B3D6D"/>
<path fill-rule="evenodd" clip-rule="evenodd" d="M6.49522 18.4535H18.7119C19.1825 18.4535 19.5665 18.8386 19.5665 19.3091V23.2191C19.5665 23.6897 19.1825 24.0737 18.7119 24.0737H16.1833V34.7029H18.7129C19.1825 34.7029 19.5675 35.088 19.5685 35.5595V39.4696C19.5675 39.6961 19.477 39.913 19.3167 40.073C19.1565 40.2331 18.9394 40.3234 18.7129 40.3242H6.49522C6.26873 40.3236 6.05167 40.2334 5.89152 40.0733C5.73136 39.9131 5.64116 39.696 5.64062 39.4696V35.5595C5.64062 35.088 6.02469 34.7029 6.49522 34.7029H9.18368V24.0727H6.49623C6.26964 24.0722 6.05248 23.982 5.89217 23.8219C5.73185 23.6618 5.64142 23.4447 5.64062 23.2181V19.3081C5.64062 18.8376 6.02469 18.4535 6.49522 18.4535ZM52.004 40.6891C45.7795 40.6891 40.7022 36.944 40.7022 29.6336C40.7022 22.3233 45.7795 18.5772 52.004 18.5772C58.2275 18.5772 63.3048 22.3233 63.3048 29.6336C63.3048 36.944 58.2285 40.6891 52.004 40.6891ZM55.2414 29.6336C55.2414 25.6341 54.5195 23.5861 52.004 23.5861C49.4875 23.5861 48.7656 25.6351 48.7656 29.6336C48.7656 33.6322 49.4875 35.6822 52.004 35.6822C54.5195 35.6812 55.2414 33.6311 55.2414 29.6336ZM31.2624 26.7622C29.1923 26.1801 27.088 26.0453 27.1785 24.4156C27.2117 23.8224 27.6731 23.1578 29.2557 23.1538C30.244 23.1518 31.9009 23.4775 33.1848 24.2889C34.5089 25.1254 35.463 26.3771 36.4272 26.3771H38.7909C39.4897 26.3771 40.0125 25.3667 40.0125 24.6669V20.1436C40.0125 19.3393 39.4706 19.0799 38.8824 19.0869L36.569 19.1151C35.0438 19.1342 35.7335 20.3397 35.0649 20.589C33.3276 21.2395 33.3356 18.725 28.7037 18.6636C23.4776 18.5953 20.392 21.6406 20.4694 25.1254C20.5659 29.513 23.8807 31.1186 27.9919 32.4598C30.0359 33.1274 33.3949 33.4673 33.3034 35.097C33.2702 35.6902 32.8088 36.3558 31.2263 36.3598C30.2379 36.3598 28.581 36.0361 27.2971 35.2247C25.973 34.3882 25.0179 33.1355 24.0547 33.1355H21.691C20.9912 33.1355 20.4694 34.1469 20.4694 34.8457V39.37C20.4694 40.1754 21.0113 40.4347 21.5995 40.4267L23.9129 40.3996C25.4381 40.3794 24.7494 39.174 25.418 38.9246C27.1554 38.2751 27.1463 40.7886 31.7782 40.849C37.0053 40.9173 40.0899 37.872 40.0135 34.3862C39.916 29.9986 36.6243 28.2713 31.2624 26.7622ZM48.6037 11.2317C47.9693 11.9666 47.0524 12.6402 45.9123 13.2274C46.7247 14.374 47.4317 15.5919 48.0246 16.866H46.9368C46.3862 15.7431 45.7422 14.6685 45.0114 13.6537C44.4232 13.9081 43.7878 14.1433 43.1132 14.3545C42.3591 14.5907 41.5538 14.7999 40.7052 14.9758C40.8872 15.4906 41.0602 16.0254 41.222 16.5794L41.3045 16.866H40.285L40.281 16.8519C40.1153 16.2827 39.9322 15.7188 39.732 15.1608C37.9544 15.4625 36.1559 15.6242 34.3531 15.6444V16.866H33.3698V15.6444C31.5672 15.6247 29.769 15.463 27.9919 15.1608C27.7902 15.7238 27.6058 16.2927 27.4389 16.867H26.4194C26.4455 16.7705 26.4737 16.6759 26.5018 16.5804C26.6637 16.0265 26.8366 15.4906 27.0196 14.9758C26.1271 14.7924 25.2454 14.5602 24.3784 14.2801C23.814 14.0981 23.2587 13.8891 22.7145 13.6537C22.022 14.6151 21.4071 15.6301 20.8756 16.689L20.7871 16.866H19.6992C20.293 15.5921 21.0004 14.3743 21.8126 13.2274C20.6735 12.6402 19.7566 11.9676 19.1221 11.2317C17.1532 12.8283 15.4532 14.7306 14.0871 16.866H12.9298C17.2149 9.77181 24.9998 5.01221 33.8624 5.01221C42.7251 5.01221 50.51 9.77181 54.795 16.866H53.6388C52.2718 14.7313 50.5719 12.8291 48.6037 11.2317ZM27.5394 6.86618C27.9647 7.28845 28.584 7.66648 29.3451 7.97414C30.5727 8.47081 32.1452 8.76942 33.8624 8.76942C35.453 8.76942 36.9199 8.51405 38.1012 8.08172C38.988 7.75798 39.7069 7.34073 40.1854 6.86618C38.1726 6.30014 36.0512 5.9965 33.8614 5.9965C31.6716 5.9965 29.5512 6.30014 27.5394 6.86618ZM27.3856 8.01536C27.0576 7.77844 26.7636 7.49766 26.5119 7.18087C24.1364 7.96938 21.9026 9.1333 19.8953 10.6284C20.4714 11.287 21.327 11.8962 22.4048 12.4321C23.8536 10.5832 25.5366 9.07808 27.3856 8.01536ZM30.1746 9.28419C29.7689 9.1748 29.3701 9.04151 28.9802 8.88504C28.7685 8.79955 28.5603 8.70598 28.3558 8.60453C26.4918 9.57776 24.7896 11.0286 23.3278 12.8504C23.7541 13.0273 24.2065 13.1932 24.6831 13.348C25.5125 13.6185 26.4134 13.8538 27.3695 14.0468C28.1638 12.0481 29.1149 10.4213 30.1746 9.28419ZM33.3698 9.74466C32.68 9.72403 31.9925 9.65414 31.3127 9.53554C30.1997 10.5409 29.1913 12.1556 28.3498 14.2258C29.9112 14.4852 31.6023 14.638 33.3698 14.6621V9.74466ZM36.4111 9.53554C35.7309 9.65369 35.0432 9.72358 34.3531 9.74466V14.6621C36.0353 14.6431 37.7138 14.4972 39.3741 14.2258C38.5326 12.1566 37.5241 10.5409 36.4111 9.53554ZM39.368 8.60352C39.0775 8.74931 38.7648 8.88202 38.435 9.00267C38.1535 9.10523 37.8579 9.19973 37.5503 9.28419C38.61 10.4213 39.5611 12.0481 40.3554 14.0448C41.1877 13.8784 42.0109 13.669 42.8216 13.4174C43.3553 13.2517 43.8813 13.0621 44.3981 12.8494C42.9352 11.0276 41.2331 9.57676 39.368 8.60352ZM41.213 7.18187C40.9611 7.49891 40.6668 7.77972 40.3383 8.01637C42.1872 9.08009 43.8713 10.5842 45.3181 12.4331C46.3958 11.8982 47.2514 11.289 47.8286 10.6304C45.8219 9.13463 43.5883 7.97032 41.213 7.18187ZM48.6037 47.2987C47.9693 46.5627 47.0524 45.8891 45.9123 45.3019C46.7247 44.156 47.4317 42.9388 48.0246 41.6654H46.9368C46.3862 42.7886 45.7422 43.8635 45.0114 44.8787C44.3913 44.6121 43.7577 44.3782 43.1132 44.1779C42.321 43.9318 41.5174 43.7241 40.7052 43.5555C40.8872 43.0408 41.0602 42.5069 41.222 41.9529L41.3045 41.6664H40.285L40.281 41.6805C40.1151 42.2496 39.932 42.8135 39.732 43.3715C37.9545 43.0692 36.156 42.9078 34.3531 42.8889V41.6674H33.3698V42.8889C31.5672 42.9078 29.769 43.0692 27.9919 43.3715C27.7897 42.8091 27.6053 42.2404 27.4389 41.6664H26.4194C26.4455 41.7629 26.4737 41.8564 26.5018 41.9529C26.6637 42.5069 26.8366 43.0428 27.0196 43.5575C26.0826 43.7516 25.1978 43.9858 24.3784 44.2523C23.7903 44.4423 23.2343 44.6524 22.7145 44.8787C22.0223 43.9167 21.4074 42.9014 20.8756 41.8423L20.7871 41.6654H19.6992C20.293 42.9386 21.0003 44.1557 21.8126 45.3019C20.6735 45.8891 19.7566 46.5627 19.1221 47.2987C17.1527 45.7025 15.4526 43.8001 14.0871 41.6644H12.9298C17.2149 48.7575 24.9998 53.5171 33.8624 53.5171C42.7251 53.5171 50.51 48.7575 54.795 41.6644H53.6388C52.2723 43.7995 50.5724 45.7017 48.6037 47.2987ZM27.5394 51.6642C27.9647 51.2419 28.584 50.8648 29.3451 50.5562C30.5727 50.0595 32.1452 49.7629 33.8624 49.7629C35.453 49.7629 36.9199 50.0183 38.1012 50.4486C38.988 50.7724 39.7069 51.1906 40.1854 51.6642C38.1726 52.2312 36.0512 52.5338 33.8614 52.5338C31.6716 52.5338 29.5512 52.2292 27.5394 51.6642ZM27.3856 50.515C27.0573 50.7516 26.7633 51.0324 26.5119 51.3495C24.1362 50.561 21.9023 49.3967 19.8953 47.9009C20.4714 47.2434 21.327 46.6341 22.4048 46.0982C23.8536 47.9482 25.5366 49.4533 27.3856 50.515ZM30.1746 49.2461C29.769 49.3552 29.3701 49.4881 28.9802 49.6443C28.7689 49.7306 28.5607 49.8242 28.3558 49.9248C26.4918 48.9526 24.7896 47.5018 23.3278 45.679C23.7541 45.502 24.2065 45.3371 24.6831 45.1823C25.5125 44.9108 26.4134 44.6756 27.3695 44.4835C28.1638 46.4833 29.1149 48.11 30.1746 49.2461ZM33.3698 48.7847C32.6549 48.8078 31.9642 48.8812 31.3127 48.9948C30.1997 47.9894 29.1913 46.3757 28.3498 44.3036C30.0101 44.0346 31.688 43.8887 33.3698 43.8672V48.7847ZM36.4111 48.9948C35.7309 48.8768 35.0432 48.8066 34.3531 48.7847V43.8672C36.1216 43.8923 37.8117 44.0442 39.3741 44.3036C38.5326 46.3737 37.5241 47.9894 36.4111 48.9948ZM39.368 49.9258C39.0647 49.7759 38.7532 49.643 38.435 49.5277C38.1535 49.4251 37.8579 49.3316 37.5503 49.2472C38.61 48.11 39.5611 46.4843 40.3554 44.4855C41.2281 44.6625 42.0525 44.8726 42.8216 45.1139C43.3796 45.2889 43.9065 45.4789 44.3981 45.681C42.9352 47.5028 41.2331 48.9536 39.368 49.9258ZM41.213 51.3495C40.9617 51.0319 40.6673 50.7511 40.3383 50.515C42.1872 49.4522 43.8713 47.9462 45.3181 46.0982C46.3958 46.6341 47.2514 47.2434 47.8286 47.9009C45.8214 49.3959 43.588 50.5602 41.213 51.3495Z" fill="white"/>
<path fill-rule="evenodd" clip-rule="evenodd" d="M83.7307 17.9991H82.3905V8.74331H83.7307V17.9991ZM86.5408 17.9991H85.282V11.0065H86.4905V11.8028C86.7529 11.4881 87.0415 11.2578 87.3582 11.1121C87.6988 10.9608 88.0684 10.886 88.441 10.8929C89.3569 10.8929 90.0597 11.1623 90.5494 11.7002C91.039 12.2381 91.2833 13.0103 91.2833 14.0147V17.9981H90.0195V14.2881C90.0195 13.5461 89.8818 12.9952 89.6073 12.6373C89.3308 12.2793 88.9035 12.1004 88.3264 12.1004C87.699 12.1004 87.2456 12.3115 86.9641 12.7328C86.6816 13.155 86.5418 13.8498 86.5418 14.822L86.5408 17.9991ZM93.1805 17.9991V12.1496H92.1912V11.0065H93.1805V8.74331H94.4333V11.0065H95.4246V12.1496H94.4333V17.9991H93.1805ZM101.774 13.8367C101.617 13.2606 101.345 12.8132 100.958 12.4985C100.573 12.1818 100.114 12.023 99.5759 12.023C99.0239 12.023 98.5474 12.1858 98.1402 12.5086C97.738 12.8343 97.4565 13.2767 97.3057 13.8357L101.774 13.8367ZM97.2675 14.9678C97.3731 15.5509 97.6385 16.0265 98.0588 16.3884C98.481 16.7504 98.9817 16.9314 99.5628 16.9314C99.9771 16.9314 100.354 16.8308 100.698 16.6317C101.038 16.4347 101.308 16.1522 101.513 15.7882H102.931C102.609 16.5634 102.157 17.1566 101.58 17.5678C101.001 17.978 100.329 18.1831 99.5628 18.1831C99.0761 18.1892 98.5931 18.0965 98.1432 17.9106C97.7041 17.7194 97.3086 17.4406 96.981 17.0912C96.3197 16.389 95.948 15.4628 95.9404 14.4983C95.9404 14.0056 96.0248 13.5461 96.1917 13.1188C96.3586 12.6915 96.6059 12.3015 96.9317 11.9496C97.2775 11.5675 97.6697 11.281 98.106 11.0879C98.5444 10.8949 99.0209 10.7994 99.5377 10.7994C100.15 10.7994 100.722 10.9431 101.25 11.2287C101.778 11.5152 102.212 11.9144 102.558 12.4261C102.758 12.7448 102.912 13.0917 103.007 13.4718C103.106 13.8518 103.153 14.2861 103.153 14.7707V14.9688L97.2675 14.9678ZM105.519 17.9991H104.26V11.0065H105.442V11.8138C105.651 11.5052 105.89 11.2759 106.159 11.1261C106.429 10.9763 106.74 10.8979 107.096 10.8939V12.209C106.532 12.2522 106.128 12.4171 105.885 12.7076C105.642 12.9982 105.52 13.4647 105.52 14.1092L105.519 17.9991ZM109.267 17.9991H108.008V11.0065H109.218V11.8028C109.479 11.4881 109.768 11.2578 110.085 11.1121C110.426 10.9607 110.795 10.8859 111.167 10.8929C112.082 10.8929 112.785 11.1623 113.277 11.7002C113.763 12.2381 114.01 13.0103 114.01 14.0147V17.9981H112.745V14.2881C112.745 13.5461 112.607 12.9952 112.333 12.6373C112.058 12.2793 111.63 12.1004 111.053 12.1004C110.426 12.1004 109.973 12.3115 109.69 12.7328C109.41 13.155 109.268 13.8498 109.268 14.822L109.267 17.9991ZM116.431 14.4581C116.431 15.1649 116.666 15.757 117.133 16.2376C117.601 16.7182 118.172 16.9555 118.852 16.9555C119.47 16.9555 120.016 16.7142 120.487 16.2346C120.959 15.753 121.196 15.191 121.196 14.5465C121.196 13.8608 120.961 13.2727 120.495 12.783C120.026 12.2944 119.47 12.0501 118.826 12.0501C118.165 12.0501 117.601 12.2813 117.133 12.7479C116.666 13.2144 116.431 13.7854 116.431 14.4581ZM121.132 17.9991V17.1395C120.829 17.4621 120.463 17.7203 120.058 17.8986C119.66 18.0695 119.238 18.1569 118.787 18.1569C117.737 18.1569 116.865 17.8051 116.169 17.1053C115.474 16.4045 115.127 15.5258 115.127 14.4711C115.127 13.9785 115.213 13.512 115.388 13.0716C115.561 12.6312 115.808 12.2421 116.132 11.9083C116.484 11.5394 116.866 11.2679 117.283 11.0919C117.737 10.9093 118.223 10.8194 118.713 10.8275C119.192 10.8275 119.632 10.912 120.032 11.0809C120.436 11.2498 120.804 11.5082 121.132 11.851V11.0055H122.405V17.9981L121.132 17.9991ZM124.291 17.9991V12.1496H123.3V11.0065H124.291V8.74331H125.544V11.0065H126.535V12.1496H125.544V17.9991H124.291ZM128.69 10.1861H127.443V8.74331H128.69V10.1861ZM127.443 17.9991V11.0065H128.69V17.9991H127.443ZM131.087 14.4963C131.087 15.195 131.308 15.7782 131.751 16.2447C132.192 16.7112 132.744 16.9434 133.406 16.9434C134.054 16.9434 134.596 16.7092 135.034 16.2406C135.474 15.7721 135.691 15.186 135.691 14.4832C135.691 13.7754 135.473 13.1902 135.034 12.7277C134.595 12.2663 134.049 12.036 133.392 12.036C132.738 12.036 132.192 12.2703 131.75 12.7388C131.308 13.2083 131.087 13.7935 131.087 14.4963ZM129.783 14.5103C129.783 14.0137 129.868 13.5512 130.035 13.1219C130.203 12.6906 130.453 12.2964 130.773 11.9616C131.125 11.5846 131.523 11.293 131.963 11.0919C132.392 10.8901 132.861 10.7854 133.335 10.7853C133.844 10.7853 134.316 10.8768 134.747 11.0588C135.185 11.2407 135.578 11.5102 135.929 11.8661C136.271 12.218 136.537 12.6151 136.721 13.0555C136.906 13.4959 136.995 13.9513 136.995 14.4229C136.995 14.9004 136.909 15.3659 136.738 15.8204C136.565 16.2738 136.326 16.671 136.017 17.0088C135.661 17.3999 135.261 17.6945 134.819 17.8965C134.378 18.0986 133.905 18.1982 133.406 18.1982C132.893 18.1982 132.421 18.1077 131.988 17.9227C131.548 17.7325 131.152 17.4543 130.824 17.1053C130.495 16.758 130.235 16.3517 130.058 15.9079C129.877 15.4641 129.784 14.9895 129.783 14.5103ZM139.337 17.9991H138.078V11.0065H139.288V11.8028C139.551 11.4881 139.837 11.2578 140.155 11.1121C140.495 10.9609 140.865 10.8861 141.237 10.8929C142.152 10.8929 142.855 11.1623 143.346 11.7002C143.835 12.2381 144.08 13.0103 144.08 14.0147V17.9981H142.813V14.2881C142.813 13.5461 142.678 12.9952 142.403 12.6373C142.127 12.2793 141.701 12.1004 141.123 12.1004C140.495 12.1004 140.044 12.3115 139.761 12.7328C139.479 13.155 139.337 13.8498 139.337 14.822V17.9991ZM146.502 14.4581C146.502 15.1649 146.736 15.757 147.205 16.2376C147.426 16.4705 147.692 16.6546 147.988 16.7783C148.284 16.9019 148.603 16.9623 148.923 16.9555C149.542 16.9555 150.086 16.7142 150.559 16.2346C151.029 15.753 151.266 15.191 151.266 14.5465C151.272 14.2209 151.212 13.8973 151.092 13.5946C150.972 13.2919 150.793 13.0161 150.565 12.783C150.096 12.2944 149.542 12.0501 148.896 12.0501C148.235 12.0501 147.671 12.2813 147.205 12.7479C146.977 12.9696 146.797 13.2358 146.676 13.53C146.555 13.8242 146.496 14.1401 146.502 14.4581ZM151.204 17.9991V17.1395C150.882 17.4743 150.522 17.7276 150.128 17.8986C149.727 18.0709 149.295 18.1588 148.859 18.1569C147.808 18.1569 146.937 17.8051 146.24 17.1053C145.545 16.4045 145.199 15.5258 145.199 14.4711C145.199 13.9785 145.286 13.512 145.459 13.0716C145.634 12.6312 145.879 12.2421 146.203 11.9083C146.555 11.5394 146.939 11.2679 147.355 11.0919C147.808 10.9091 148.294 10.8192 148.783 10.8275C149.262 10.8275 149.702 10.912 150.104 11.0809C150.506 11.2498 150.874 11.5082 151.204 11.851V11.0055H152.474V17.9981L151.204 17.9991ZM153.937 17.9991V8.74331H155.182V17.9991H153.937ZM83.3707 29.8569C83.3707 30.3395 83.4512 30.7979 83.611 31.2273C83.7719 31.6556 84.0042 32.0286 84.3048 32.3402C84.6215 32.674 84.9884 32.9294 85.4027 33.1124C85.8179 33.2954 86.2422 33.3849 86.6745 33.3849C87.6317 33.3849 88.432 33.043 89.0764 32.3654C89.7209 31.6837 90.0426 30.8392 90.0426 29.8307C90.0426 29.4034 89.9642 28.9932 89.8114 28.6072C89.6523 28.2121 89.4227 27.8493 89.1337 27.5364C88.8174 27.1848 88.4334 26.9007 88.0047 26.7009C87.5858 26.5164 87.1322 26.4239 86.6745 26.4295C86.2382 26.4295 85.8219 26.5119 85.4288 26.6768C85.0337 26.8417 84.6848 27.082 84.3812 27.3946C84.0624 27.7231 83.8098 28.1099 83.6372 28.5338C83.4602 28.9661 83.3707 29.4065 83.3707 29.8569ZM81.9712 29.8458C81.9712 29.1963 82.0949 28.583 82.3392 28.0019C82.5908 27.4114 82.9583 26.8774 83.42 26.4315C83.8492 26.0038 84.3577 25.664 84.9171 25.4311C85.4787 25.2009 86.0806 25.085 86.6876 25.0902C87.3341 25.0902 87.9343 25.2029 88.4883 25.4311C89.055 25.6666 89.5701 26.011 90.0044 26.4445C90.476 26.907 90.8289 27.4228 91.0651 27.9959C91.3024 28.569 91.4221 29.1853 91.4221 29.8468C91.4221 30.5003 91.3195 31.1076 91.1154 31.6596C90.9127 32.2124 90.6024 32.7195 90.2025 33.1516C89.7209 33.6704 89.187 34.0565 88.5958 34.3199C87.9902 34.5861 87.335 34.7208 86.6735 34.715C86.0115 34.721 85.3559 34.5845 84.7512 34.3149C84.1455 34.0358 83.6068 33.6298 83.1717 33.1245C82.7781 32.6913 82.4734 32.185 82.2749 31.6344C82.0704 31.0604 81.9677 30.4551 81.9712 29.8458ZM93.8461 34.529H92.5873V27.5364H93.7697V28.3437C93.9778 28.0351 94.2171 27.8058 94.4865 27.656C94.756 27.5062 95.0677 27.4278 95.4236 27.4238V28.7389C94.8595 28.7821 94.4554 28.947 94.2121 29.2376C93.9667 29.5281 93.8471 29.9946 93.8471 30.6391V34.529H93.8461ZM96.438 35.088H97.7792C97.9733 35.4138 98.2267 35.6631 98.5454 35.834C98.8591 36.005 99.223 36.0934 99.6272 36.0934C100.336 36.0934 100.905 35.8793 101.337 35.453C101.772 35.0267 101.986 34.4617 101.986 33.7579V33.6694C101.682 33.9915 101.316 34.2493 100.91 34.4275C100.51 34.6012 100.078 34.6896 99.6413 34.6869C98.5906 34.6869 97.7189 34.335 97.0222 33.6342C96.3294 32.9334 95.9816 32.0537 95.9816 31.001C95.9816 30.5084 96.068 30.0409 96.241 29.6005C96.4159 29.1601 96.6632 28.772 96.985 28.4372C97.3369 28.0683 97.7209 27.7968 98.1372 27.6209C98.5906 27.438 99.0761 27.3481 99.5649 27.3564C100.04 27.3564 100.478 27.4409 100.884 27.6098C101.286 27.7787 101.659 28.0371 101.999 28.3799V27.5344H103.258V33.3678C103.258 34.5853 102.942 35.5374 102.312 36.2271C101.679 36.9169 100.81 37.2597 99.7056 37.2597C98.9043 37.2597 98.2186 37.0707 97.6516 36.6927C97.0845 36.3136 96.6803 35.7797 96.438 35.088ZM97.2846 30.988C97.2846 31.6948 97.5178 32.288 97.9874 32.7675C98.2078 33.0005 98.4746 33.1849 98.7705 33.3087C99.0664 33.4325 99.3849 33.493 99.7056 33.4864C100.324 33.4864 100.868 33.2451 101.341 32.7655C101.815 32.2839 102.048 31.7209 102.048 31.0764C102.048 30.3908 101.817 29.8036 101.347 29.313C100.88 28.8253 100.324 28.58 99.6805 28.58C99.0209 28.58 98.4529 28.8113 97.9874 29.2778C97.7596 29.4997 97.5797 29.7659 97.4588 30.0601C97.3379 30.3542 97.2786 30.67 97.2846 30.988ZM105.668 30.988C105.668 31.6948 105.903 32.288 106.37 32.7675C106.838 33.2471 107.409 33.4864 108.089 33.4864C108.707 33.4864 109.251 33.2451 109.725 32.7655C110.196 32.2839 110.431 31.7209 110.431 31.0764C110.431 30.3908 110.198 29.8036 109.733 29.313C109.263 28.8253 108.707 28.58 108.064 28.58C107.402 28.58 106.838 28.8113 106.37 29.2778C106.143 29.4998 105.963 29.766 105.842 30.0602C105.721 30.3543 105.662 30.67 105.668 30.988ZM110.369 34.529V33.6704C110.065 33.9925 109.699 34.2503 109.293 34.4285C108.893 34.6023 108.461 34.6906 108.024 34.6879C106.974 34.6879 106.102 34.336 105.405 33.6352C104.713 32.9344 104.365 32.0547 104.365 31.002C104.365 30.5094 104.451 30.0419 104.626 29.6015C104.799 29.1611 105.046 28.7731 105.37 28.4382C105.722 28.0693 106.104 27.7978 106.521 27.6219C106.975 27.4392 107.46 27.3493 107.949 27.3574C108.431 27.3574 108.87 27.4419 109.27 27.6108C109.674 27.7797 110.04 28.0381 110.37 28.3809V27.5354H111.643V34.528L110.369 34.529ZM114.36 34.529H113.102V27.5364H114.311V28.3327C114.575 28.019 114.861 27.7878 115.179 27.643C115.519 27.4916 115.888 27.4168 116.261 27.4238C117.176 27.4238 117.878 27.6932 118.37 28.2311C118.859 28.769 119.104 29.5412 119.104 30.5466V34.529H117.837V30.8201C117.837 30.0781 117.701 29.5261 117.425 29.1682C117.15 28.8103 116.722 28.6323 116.145 28.6323C115.519 28.6323 115.065 28.8424 114.784 29.2637C114.501 29.687 114.359 30.3817 114.359 31.3539V34.529H114.36ZM121.823 26.716H120.578V25.2732H121.823V26.716ZM120.578 34.529V27.5364H121.823V34.529H120.578ZM127.539 34.529H122.708V33.5115L126.083 28.6796H123.115V27.5364H127.348V28.8273L124.194 33.3467H127.538L127.539 34.529ZM129.517 30.988C129.517 31.6948 129.75 32.288 130.22 32.7675C130.44 33.0005 130.707 33.1849 131.003 33.3087C131.299 33.4325 131.617 33.493 131.938 33.4864C132.556 33.4864 133.1 33.2451 133.574 32.7655C134.045 32.2839 134.281 31.7209 134.281 31.0764C134.281 30.3908 134.047 29.8036 133.58 29.313C133.11 28.8253 132.556 28.58 131.913 28.58C131.251 28.58 130.685 28.8113 130.22 29.2778C129.992 29.4995 129.812 29.7657 129.691 30.0599C129.57 30.3541 129.511 30.67 129.517 30.988ZM134.217 34.529V33.6704C133.896 34.0042 133.536 34.2576 133.141 34.4285C132.741 34.602 132.309 34.6904 131.873 34.6879C130.822 34.6879 129.95 34.336 129.254 33.6352C128.561 32.9344 128.213 32.0547 128.213 31.002C128.213 30.5094 128.299 30.0419 128.472 29.6015C128.647 29.1611 128.895 28.7731 129.216 28.4382C129.568 28.0693 129.952 27.7978 130.369 27.6219C130.822 27.439 131.307 27.3491 131.796 27.3574C132.276 27.3574 132.715 27.4419 133.117 27.6108C133.519 27.7797 133.887 28.0381 134.217 28.3809V27.5354H135.488V34.528L134.217 34.529ZM137.377 34.529V28.6806H136.386V27.5374H137.377V25.2742H138.628V27.5374H139.619V28.6806H138.628V34.529H137.377ZM141.774 26.716H140.529V25.2732H141.774V26.716ZM140.529 34.529V27.5364H141.774V34.529H140.529ZM144.172 31.0272C144.172 31.7259 144.394 32.3091 144.835 32.7746C145.279 33.2421 145.829 33.4733 146.49 33.4733C147.14 33.4733 147.683 33.2401 148.12 32.7706C148.558 32.303 148.778 31.7159 148.778 31.0131C148.778 30.3063 148.557 29.7212 148.12 29.2577C147.682 28.7962 147.135 28.5659 146.478 28.5659C145.825 28.5659 145.279 28.8002 144.834 29.2687C144.394 29.7382 144.172 30.3244 144.172 31.0272ZM142.868 31.0413C142.868 30.5446 142.952 30.0811 143.119 29.6508C143.286 29.2195 143.533 28.8334 143.859 28.4905C144.211 28.1135 144.607 27.8219 145.048 27.6209C145.478 27.4194 145.947 27.3151 146.422 27.3152C146.929 27.3152 147.4 27.4057 147.833 27.5887C148.277 27.7761 148.678 28.0507 149.014 28.396C149.358 28.7469 149.621 29.1441 149.805 29.5854C149.99 30.0258 150.082 30.4802 150.082 30.9518C150.082 31.4293 149.995 31.8959 149.822 32.3503C149.651 32.8037 149.41 33.2009 149.101 33.5387C148.745 33.9298 148.347 34.2244 147.904 34.4265C147.462 34.6285 146.989 34.7291 146.49 34.7291C146.004 34.7342 145.523 34.6401 145.075 34.4526C144.635 34.2629 144.239 33.9851 143.91 33.6362C143.246 32.9348 142.874 32.0072 142.868 31.0413ZM152.423 34.529H151.164V27.5364H152.372V28.3327C152.635 28.019 152.924 27.7878 153.24 27.643C153.555 27.4982 153.917 27.4238 154.323 27.4238C155.238 27.4238 155.941 27.6932 156.433 28.2311C156.919 28.769 157.166 29.5412 157.166 30.5466V34.529H155.901V30.8201C155.901 30.0781 155.763 29.5261 155.489 29.1682C155.214 28.8103 154.786 28.6323 154.209 28.6323C153.582 28.6323 153.129 28.8424 152.846 29.2637C152.566 29.687 152.424 30.3817 152.424 31.3539V34.529H152.423ZM163.965 34.529H162.713V28.6303H161.88V27.5374H162.673V27.3273C162.673 26.6134 162.873 26.0735 163.273 25.7106C163.671 25.3486 164.266 25.1677 165.059 25.1677V26.3309H164.95C164.577 26.3309 164.311 26.4154 164.15 26.5843C163.989 26.7532 163.909 27.0377 163.909 27.4349V27.5374H165.06V28.6303H163.966V34.529H163.965ZM166.876 31.0272C166.876 31.7259 167.098 32.3091 167.539 32.7746C167.983 33.2421 168.535 33.4733 169.196 33.4733C169.502 33.4799 169.806 33.4205 170.087 33.2992C170.368 33.178 170.619 32.9977 170.824 32.7706C171.265 32.303 171.482 31.7159 171.482 31.0131C171.482 30.3063 171.264 29.7212 170.824 29.2577C170.386 28.7962 169.84 28.5659 169.182 28.5659C168.529 28.5659 167.983 28.8002 167.538 29.2687C167.098 29.7382 166.876 30.3244 166.876 31.0272ZM165.572 31.0413C165.572 30.5446 165.658 30.0811 165.825 29.6508C165.993 29.2195 166.244 28.8253 166.563 28.4905C166.915 28.1135 167.313 27.8219 167.754 27.6209C168.183 27.4194 168.652 27.315 169.126 27.3152C169.635 27.3152 170.106 27.4057 170.54 27.5887C170.976 27.7707 171.366 28.0401 171.72 28.396C172.062 28.7469 172.327 29.1441 172.511 29.5854C172.696 30.0258 172.786 30.4802 172.786 30.9518C172.786 31.4293 172.699 31.8959 172.528 32.3503C172.355 32.8037 172.116 33.2009 171.807 33.5387C171.473 33.913 171.065 34.2151 170.61 34.4265C170.167 34.6285 169.695 34.7291 169.196 34.7291C168.684 34.7291 168.211 34.6366 167.779 34.4526C167.339 34.2629 166.943 33.9851 166.615 33.6362C166.289 33.2924 166.033 32.8942 165.848 32.4388C165.663 31.9833 165.572 31.5148 165.572 31.0413ZM175.141 34.529H173.883V27.5364H175.065V28.3437C175.273 28.0351 175.512 27.8058 175.782 27.656C176.051 27.5062 176.363 27.4278 176.719 27.4238V28.7389C176.155 28.7821 175.753 28.947 175.509 29.2376C175.264 29.5281 175.142 29.9946 175.142 30.6391L175.141 34.529ZM81.9018 48.3906H83.1043C83.1254 48.8702 83.2672 49.2522 83.5286 49.5377C83.791 49.8223 84.1349 49.9661 84.5531 49.9661C85.0146 49.9661 85.3836 49.8223 85.6621 49.5377C85.9396 49.2512 86.0793 48.8681 86.0793 48.3886C86.0793 47.9703 85.9768 47.6446 85.7727 47.4163C85.5716 47.1861 85.1443 46.975 84.4948 46.7739C84.4373 46.7596 84.38 46.7445 84.3229 46.7286C83.5477 46.5225 82.9867 46.1807 82.6398 45.7071C82.4864 45.506 82.3669 45.2812 82.2859 45.0416C82.207 44.7987 82.1676 44.5448 82.1693 44.2895C82.1693 43.4963 82.4035 42.8558 82.8741 42.3652C83.3456 41.8786 83.9609 41.6322 84.725 41.6322C85.4328 41.6322 86.0029 41.8504 86.4362 42.2878C86.8736 42.7261 87.1139 43.3283 87.1591 44.0925H85.9074C85.8853 43.7235 85.7616 43.4249 85.5354 43.1966C85.4235 43.0843 85.2898 42.9962 85.1424 42.9377C84.995 42.8792 84.8372 42.8517 84.6788 42.8568C84.3098 42.8568 84.0102 42.9825 83.781 43.2338C83.5487 43.4872 83.4331 43.813 83.4331 44.2101C83.4331 44.3519 83.4552 44.4815 83.4964 44.6052C83.5386 44.7289 83.605 44.8425 83.6935 44.9491C83.8755 45.1652 84.2656 45.3512 84.8628 45.5091C85.1383 45.5795 85.3504 45.6428 85.4982 45.6941C86.1095 45.9223 86.572 46.2561 86.8887 46.6914C87.2034 47.1278 87.3622 47.6516 87.3622 48.2619C87.3622 49.1557 87.1088 49.8756 86.5981 50.4235C86.0904 50.9695 85.4157 51.2419 84.5782 51.2419C83.788 51.2419 83.1486 50.9785 82.6539 50.4567C82.1622 49.9359 81.9109 49.2462 81.9018 48.3906ZM88.9377 51.0589V45.2115H87.9474V44.0663H88.9377V41.8042H90.1904V44.0663H91.1818V45.2115H90.1904V51.0589H88.9377ZM93.0367 47.5189C93.0367 48.2257 93.272 48.8189 93.7415 49.2985C93.962 49.5315 94.2287 49.7158 94.5246 49.8396C94.8205 49.9634 95.1391 50.0239 95.4598 50.0173C96.0761 50.0173 96.622 49.776 97.0956 49.2965C97.5651 48.8139 97.8024 48.2538 97.8024 47.6074C97.8024 46.9217 97.5691 46.3345 97.1016 45.8439C96.6321 45.3553 96.0761 45.1109 95.4326 45.1109C94.7711 45.1109 94.207 45.3422 93.7415 45.8097C93.5133 46.0312 93.333 46.2971 93.2117 46.5911C93.0905 46.8851 93.0309 47.2009 93.0367 47.5189ZM97.74 51.0589V50.2003C97.4183 50.5341 97.0584 50.7875 96.6642 50.9584C96.2632 51.1322 95.8304 51.2205 95.3934 51.2178C94.3448 51.2178 93.4731 50.8659 92.7753 50.1651C92.0806 49.4644 91.7327 48.5866 91.7327 47.532C91.7327 47.0393 91.8212 46.5718 91.9941 46.1314C92.1671 45.6911 92.4144 45.303 92.7381 44.9692C93.09 44.6002 93.4741 44.3287 93.8903 44.1528C94.3439 43.9708 94.8293 43.8812 95.318 43.8894C95.7976 43.8894 96.2369 43.9738 96.6391 44.1427C97.0413 44.3116 97.4093 44.571 97.739 44.9129V44.0663H99.0099V51.0589H97.74ZM101.733 51.0589H100.474V44.0663H101.681V44.8636C101.945 44.5499 102.233 44.3177 102.549 44.1719C102.865 44.0261 103.227 43.9537 103.633 43.9537C104.548 43.9537 105.25 44.2232 105.74 44.7611C106.23 45.2989 106.474 46.0711 106.474 47.0765V51.0589H105.209V47.35C105.209 46.608 105.071 46.056 104.797 45.6981C104.523 45.3402 104.094 45.1622 103.517 45.1622C102.891 45.1622 102.437 45.3744 102.155 45.7946C101.872 46.2169 101.733 46.9116 101.733 47.8839V51.0589ZM108.896 47.5189C108.896 48.2257 109.129 48.8189 109.599 49.2985C109.819 49.5315 110.086 49.7158 110.382 49.8396C110.678 49.9634 110.996 50.0239 111.317 50.0173C111.935 50.0173 112.479 49.776 112.953 49.2965C113.426 48.8139 113.66 48.2538 113.66 47.6074C113.66 46.9217 113.428 46.3345 112.959 45.8439C112.491 45.3553 111.935 45.1109 111.292 45.1109C110.632 45.1109 110.064 45.3422 109.599 45.8097C109.371 46.0311 109.191 46.2971 109.07 46.5912C108.949 46.8852 108.89 47.201 108.896 47.5189ZM113.597 51.0589V50.2003C113.293 50.5224 112.927 50.7802 112.522 50.9584C112.121 51.1322 111.689 51.2205 111.253 51.2178C110.202 51.2178 109.33 50.8659 108.634 50.1651C107.941 49.4644 107.593 48.5866 107.593 47.532C107.593 47.0393 107.68 46.5718 107.854 46.1314C108.027 45.6911 108.275 45.303 108.596 44.9692C108.948 44.6002 109.332 44.3287 109.749 44.1528C110.202 43.9708 110.688 43.8812 111.176 43.8894C111.652 43.8894 112.089 43.9738 112.495 44.1427C112.9 44.3116 113.273 44.571 113.61 44.9129V41.8042H114.869V51.0589H113.597ZM117.279 47.5189C117.279 48.2257 117.514 48.8189 117.982 49.2985C118.449 49.778 119.021 50.0173 119.7 50.0173C120.318 50.0173 120.862 49.776 121.336 49.2965C121.807 48.8139 122.043 48.2538 122.043 47.6074C122.043 46.9217 121.81 46.3345 121.342 45.8439C120.874 45.3553 120.318 45.1109 119.675 45.1109C119.013 45.1109 118.449 45.3422 117.982 45.8097C117.754 46.0314 117.574 46.2975 117.453 46.5914C117.332 46.8854 117.273 47.2011 117.279 47.5189ZM121.982 51.0589V50.2003C121.661 50.5341 121.299 50.7875 120.905 50.9584C120.504 51.1322 120.072 51.2205 119.636 51.2178C118.585 51.2178 117.713 50.8659 117.017 50.1651C116.324 49.4644 115.976 48.5866 115.976 47.532C115.976 47.0393 116.063 46.5718 116.238 46.1314C116.41 45.6911 116.658 45.303 116.982 44.9692C117.333 44.6002 117.715 44.3287 118.133 44.1528C118.586 43.971 119.072 43.8814 119.56 43.8894C120.04 43.8894 120.481 43.9738 120.882 44.1427C121.286 44.3116 121.652 44.571 121.983 44.9129V44.0663H123.254V51.0589H121.982ZM125.986 51.0589H124.727V44.0663H125.91V44.8737C126.118 44.565 126.357 44.3358 126.626 44.186C126.896 44.0362 127.208 43.9577 127.563 43.9547V45.2688C126.999 45.312 126.595 45.4769 126.354 45.7695C126.109 46.058 125.987 46.5255 125.987 47.17V51.0589H125.986ZM129.424 47.5189C129.424 48.2257 129.66 48.8189 130.127 49.2985C130.595 49.778 131.166 50.0173 131.845 50.0173C132.464 50.0173 133.008 49.776 133.481 49.2965C133.955 48.8139 134.188 48.2538 134.188 47.6074C134.194 47.2818 134.135 46.9584 134.015 46.6557C133.895 46.353 133.717 46.0771 133.489 45.8439C133.02 45.3553 132.464 45.1109 131.82 45.1109C131.161 45.1109 130.595 45.3422 130.127 45.8097C129.899 46.0314 129.72 46.2975 129.599 46.5914C129.478 46.8854 129.419 47.2011 129.424 47.5189ZM134.126 51.0589V50.2003C133.822 50.5224 133.457 50.7801 133.052 50.9584C132.651 51.132 132.218 51.2204 131.781 51.2178C130.73 51.2178 129.859 50.8659 129.162 50.1651C128.469 49.4644 128.121 48.5866 128.121 47.532C128.121 47.0393 128.208 46.5718 128.383 46.1314C128.556 45.6911 128.803 45.303 129.127 44.9692C129.479 44.6002 129.861 44.3287 130.278 44.1528C130.732 43.9711 131.217 43.8816 131.706 43.8894C132.181 43.8894 132.621 43.9738 133.025 44.1427C133.429 44.3116 133.802 44.571 134.14 44.9129V41.8042H135.399V51.0589H134.126ZM138.106 43.2479H136.861V41.8042H138.106V43.2479ZM136.86 51.0589V44.0663H138.105V51.0589H136.86ZM143.822 51.0589H138.991V50.0415L142.366 45.2105H139.397V44.0653H143.631V45.3573L140.477 49.8756H143.821V51.0589H143.822ZM145.798 47.5189C145.798 48.2257 146.033 48.8189 146.502 49.2985C146.723 49.5315 146.99 49.7158 147.285 49.8396C147.581 49.9634 147.9 50.0239 148.221 50.0173C148.837 50.0173 149.383 49.776 149.856 49.2965C150.328 48.8139 150.563 48.2538 150.563 47.6074C150.563 46.9217 150.33 46.3345 149.862 45.8439C149.393 45.3553 148.837 45.1109 148.193 45.1109C147.532 45.1109 146.968 45.3422 146.502 45.8097C146.274 46.031 146.093 46.297 145.972 46.591C145.851 46.885 145.791 47.2009 145.798 47.5189ZM150.501 51.0589V50.2003C150.179 50.5341 149.819 50.7875 149.425 50.9584C149.024 51.1322 148.591 51.2205 148.154 51.2178C147.106 51.2178 146.234 50.8659 145.536 50.1651C144.841 49.4644 144.496 48.5866 144.496 47.532C144.496 47.0393 144.582 46.5718 144.755 46.1314C144.924 45.6989 145.177 45.304 145.499 44.9692C145.851 44.6002 146.235 44.3287 146.651 44.1528C147.105 43.9708 147.59 43.8812 148.079 43.8894C148.558 43.8894 148.998 43.9738 149.4 44.1427C149.802 44.3116 150.17 44.571 150.5 44.9129V44.0663H151.771V51.0589H150.501ZM153.658 51.0589V45.2115H152.668V44.0663H153.658V41.8042H154.911V44.0663H155.902V45.2115H154.911V51.0589H153.658ZM158.056 43.2479H156.812V41.8042H158.056V43.2479ZM156.812 51.0589V44.0663H158.056V51.0589H156.812ZM160.454 47.5581C160.454 48.2569 160.677 48.84 161.118 49.3055C161.559 49.773 162.111 50.0043 162.773 50.0043C163.421 50.0043 163.963 49.771 164.403 49.3015C164.841 48.834 165.06 48.2468 165.06 47.544C165.06 46.8372 164.84 46.2521 164.403 45.7886C163.962 45.3271 163.417 45.0969 162.759 45.0969C162.451 45.0909 162.145 45.1505 161.862 45.2717C161.579 45.3928 161.325 45.5728 161.117 45.7996C160.677 46.2702 160.454 46.8553 160.454 47.5581ZM159.15 47.5712C159.15 47.0725 159.235 46.611 159.402 46.1807C159.569 45.7484 159.816 45.3643 160.142 45.0205C160.494 44.6434 160.89 44.3529 161.33 44.1508C161.76 43.9497 162.23 43.8457 162.704 43.8461C163.211 43.8461 163.683 43.9366 164.116 44.1186C165.006 44.505 165.712 45.22 166.088 46.1143C166.273 46.5557 166.364 47.0122 166.364 47.4807C166.364 47.9583 166.276 48.4248 166.105 48.8792C165.934 49.3336 165.693 49.7298 165.384 50.0676C165.05 50.443 164.643 50.7452 164.186 50.9554C163.745 51.1575 163.272 51.258 162.773 51.258C162.26 51.258 161.788 51.1655 161.355 50.9815C160.916 50.7913 160.52 50.5135 160.191 50.1651C159.865 49.8213 159.61 49.4231 159.425 48.9677C159.24 48.5122 159.15 48.0467 159.15 47.5712ZM168.706 51.0589H167.447V44.0663H168.654V44.8636C168.918 44.5499 169.206 44.3177 169.522 44.1719C169.863 44.0211 170.232 43.9466 170.604 43.9537C171.521 43.9537 172.224 44.2232 172.713 44.7611C173.203 45.2989 173.447 46.0711 173.447 47.0765V51.0589H172.182V47.35C172.182 46.608 172.045 46.056 171.77 45.6981C171.496 45.3402 171.067 45.1622 170.49 45.1622C169.864 45.1622 169.411 45.3744 169.128 45.7946C168.846 46.2169 168.706 46.9116 168.706 47.8839V51.0589ZM74.4648 5.65771H75.431V54.3426H74.4648V5.65771Z" fill="#F3F3F5"/>
</g>
<defs>
<clipPath id="clip0_2581_2638">
<rect width="176.744" height="60" fill="white"/>
</clipPath>
</defs>
</svg>
