<svg width="20" height="15" viewBox="0 0 20 15" fill="none" xmlns="http://www.w3.org/2000/svg">
<path d="M19.9851 2.18586C19.9851 2.163 20.0009 2.14074 19.9998 2.11813L13.8984 8.00231L19.9925 13.6985C19.9961 13.6578 19.9851 13.6168 19.9851 13.5752V2.18586Z" fill="white"/>
<path d="M12.9645 8.90793L10.4731 11.3065C10.347 11.4278 10.1842 11.4887 10.0213 11.4887C9.86176 11.4887 9.70224 11.4304 9.57704 11.3137L7.09243 8.99696L0.957031 14.9145C1.10622 14.9682 1.26635 15.0098 1.43404 15.0098H18.6086C18.8576 15.0098 19.0912 14.9339 19.2942 14.8207L12.9645 8.90793Z" fill="white"/>
<path d="M10.0124 9.93918L19.3263 0.961538C19.1154 0.836082 18.8699 0.751923 18.6069 0.751923H1.43226C1.08967 0.751923 0.775749 0.88503 0.53125 1.08804L10.0124 9.93918Z" fill="white"/>
<path d="M0 2.40451V13.5751C0 13.7033 0.0294472 13.8269 0.0614135 13.9451L6.1192 8.10646L0 2.40451Z" fill="white"/>
</svg>
