<svg width="25" height="24" viewBox="0 0 25 24" fill="none" xmlns="http://www.w3.org/2000/svg">
<path d="M18.2467 2.81298C19.2114 1.8165 20.8055 1.80361 21.7862 2.78436C22.7401 3.73823 22.7578 5.27921 21.8262 6.25481L19.0475 9.16457C18.8297 9.39265 18.7208 9.50668 18.6537 9.64024C18.5943 9.75847 18.559 9.88732 18.5497 10.0193C18.5393 10.1684 18.5747 10.3221 18.6457 10.6293L20.3735 18.1169C20.4463 18.4323 20.4827 18.59 20.471 18.7426C20.4606 18.8776 20.4229 19.0091 20.3601 19.1291C20.2892 19.2647 20.1748 19.3792 19.9459 19.608L19.5751 19.9788C18.969 20.585 18.6659 20.888 18.3557 20.9429C18.0849 20.9908 17.8062 20.925 17.5854 20.761C17.3325 20.5733 17.1969 20.1666 16.9259 19.3534L14.9161 13.3241L11.5708 16.6695C11.3711 16.8691 11.2712 16.969 11.2045 17.0866C11.1453 17.1907 11.1053 17.3047 11.0865 17.423C11.0652 17.5565 11.0807 17.6968 11.1119 17.9775L11.2956 19.6309C11.3268 19.9116 11.3424 20.0519 11.3211 20.1854C11.3023 20.3037 11.2623 20.4177 11.2031 20.5219C11.1363 20.6394 11.0365 20.7393 10.8368 20.939L10.6393 21.1365C10.1662 21.6095 9.9297 21.8461 9.66686 21.9146C9.43631 21.9746 9.19189 21.9504 8.9776 21.8463C8.73329 21.7276 8.54774 21.4493 8.17664 20.8926L6.60832 18.5401C6.54202 18.4407 6.50887 18.391 6.47038 18.3459C6.4362 18.3058 6.3989 18.2685 6.35884 18.2343C6.31374 18.1958 6.26401 18.1627 6.16456 18.0964L3.81208 16.5281C3.25543 16.157 2.9771 15.9714 2.85839 15.7271C2.75425 15.5128 2.73005 15.2684 2.79014 15.0378C2.85864 14.775 3.09517 14.5385 3.56823 14.0654L3.76573 13.8679C3.96542 13.6682 4.06526 13.5684 4.18284 13.5016C4.287 13.4424 4.40095 13.4024 4.51925 13.3836C4.65278 13.3623 4.79312 13.3779 5.07379 13.4091L6.72718 13.5928C7.00785 13.6239 7.14819 13.6395 7.28172 13.6182C7.40002 13.5994 7.51397 13.5594 7.61813 13.5002C7.73571 13.4334 7.83555 13.3336 8.03524 13.1339L11.3806 9.7886L5.35128 7.77884C4.53806 7.50776 4.13144 7.37222 3.94365 7.11932C3.77966 6.89848 3.71389 6.61984 3.7618 6.34898C3.81666 6.03879 4.11973 5.73572 4.72588 5.12957L5.09665 4.7588C5.32554 4.52991 5.43999 4.41546 5.57558 4.34457C5.69559 4.28183 5.8271 4.24411 5.96212 4.23371C6.11467 4.22197 6.27238 4.25836 6.58779 4.33115L14.0469 6.05249C14.3569 6.12401 14.5119 6.15978 14.6615 6.14914C14.806 6.13886 14.9465 6.09733 15.0733 6.02742C15.2047 5.95501 15.3153 5.84074 15.5366 5.6122L18.2467 2.81298Z" stroke="white" strokeWidth="2" strokeLinecap="round" strokeLinejoin="round"/>
</svg>
