<svg width="20" height="21" viewBox="0 0 20 21" fill="none" xmlns="http://www.w3.org/2000/svg">
<path d="M15.2096 14.1279C14.556 13.4822 13.7401 13.4822 13.0907 14.1279C12.5952 14.6194 12.0998 15.111 11.6128 15.6108C11.4795 15.7483 11.3671 15.7775 11.2048 15.6858C10.8842 15.5109 10.5429 15.3692 10.2348 15.1776C8.79854 14.2737 7.59542 13.1114 6.52968 11.8034C6.00097 11.1536 5.53054 10.4579 5.20166 9.67476C5.13505 9.51647 5.14754 9.41233 5.2766 9.28319C5.772 8.80414 6.25492 8.31259 6.74199 7.82104C7.42057 7.13787 7.42057 6.33806 6.73783 5.65072C6.35067 5.25915 5.9635 4.87591 5.57634 4.48433C5.17668 4.08443 4.78119 3.68036 4.37738 3.28462C3.72378 2.64727 2.90782 2.64727 2.25838 3.28879C1.75882 3.78034 1.28007 4.28438 0.772174 4.7676C0.301749 5.21333 0.064455 5.75903 0.0144984 6.39638C-0.0645997 7.43363 0.189347 8.41257 0.547369 9.3665C1.28007 11.341 2.39577 13.0948 3.74876 14.7027C5.57634 16.8772 7.75778 18.5976 10.3097 19.839C11.4587 20.3972 12.6494 20.8263 13.9441 20.8971C14.835 20.9471 15.6093 20.7221 16.2296 20.0265C16.6542 19.5516 17.133 19.1183 17.5826 18.6643C18.2487 17.9894 18.2528 17.173 17.5909 16.5065C16.7999 15.7108 16.0048 14.9193 15.2096 14.1279Z" fill="white"/>
<path d="M14.414 10.8084L15.9498 10.5459C15.7084 9.13376 15.0424 7.85489 14.0311 6.83847C12.9614 5.76789 11.6088 5.09305 10.1188 4.88477L9.90234 6.43023C11.0552 6.59269 12.1041 7.1134 12.9323 7.94237C13.7148 8.72552 14.2267 9.71695 14.414 10.8084Z" fill="white"/>
<path d="M16.8118 4.12688C15.0385 2.3523 12.7948 1.23174 10.318 0.885986L10.1016 2.43145C12.2412 2.73138 14.181 3.70198 15.7128 5.23079C17.1656 6.68461 18.1188 8.52167 18.4643 10.542L20.0004 10.2796C19.5966 7.93848 18.4935 5.81398 16.8118 4.12688Z" fill="white"/>
</svg>
