<svg width="36" height="36" viewBox="0 0 36 36" fill="none" xmlns="http://www.w3.org/2000/svg">
<rect width="36" height="36" rx="18" fill="#E9EBEE"/>
<path fill-rule="evenodd" clip-rule="evenodd" d="M27.7892 19.9284C27.8181 19.9285 27.8467 19.9229 27.8735 19.9119C27.9002 19.9009 27.9244 19.8847 27.9449 19.8643C27.9653 19.8439 27.9815 19.8196 27.9925 19.7929C28.0035 19.7662 28.0091 19.7375 28.009 19.7086C28.0091 19.6797 28.0035 19.6511 27.9925 19.6244C27.9815 19.5977 27.9653 19.5734 27.9449 19.553C27.9245 19.5325 27.9002 19.5164 27.8735 19.5053C27.8467 19.4943 27.8181 19.4887 27.7892 19.4889H26.8758V19.9284H27.7892ZM27.7892 18.2196C27.9112 18.2196 28.009 18.1218 28.009 17.9998C28.009 17.8778 27.9112 17.78 27.7892 17.78H26.8758V18.2196H27.7892ZM27.7892 16.5122C27.8181 16.5123 27.8467 16.5067 27.8735 16.4957C27.9002 16.4847 27.9244 16.4685 27.9449 16.448C27.9653 16.4276 27.9815 16.4033 27.9925 16.3766C28.0035 16.3499 28.0091 16.3213 28.009 16.2924C28.0091 16.2635 28.0035 16.2349 27.9925 16.2081C27.9815 16.1814 27.9653 16.1572 27.9449 16.1367C27.9245 16.1163 27.9002 16.1001 27.8735 16.0891C27.8467 16.0781 27.8181 16.0725 27.7892 16.0726H26.8758V16.5122H27.7892ZM8.01172 15.3995C8.01172 16.1917 8.65647 16.8363 9.44852 16.8363H13.6738C14.4659 16.8363 15.1106 16.1916 15.1106 15.3995C15.1106 14.6074 14.4659 13.9627 13.6738 13.9627C13.5401 13.9627 13.4062 13.9805 13.2777 14.018C13.2453 14.0273 13.2112 14.0289 13.1781 14.0229C13.145 14.0168 13.1137 14.0032 13.0868 13.983C13.0596 13.9628 13.0374 13.9366 13.022 13.9064C13.0066 13.8762 12.9984 13.8428 12.998 13.8089C12.9882 13.0251 12.3453 12.3886 11.5612 12.3886C10.777 12.3886 10.1341 13.0251 10.1244 13.8089C10.1238 13.8429 10.1155 13.8763 10.1 13.9065C10.0845 13.9368 10.0623 13.9631 10.0351 13.9834C10.0081 14.0035 9.97676 14.0171 9.9436 14.0231C9.91045 14.0291 9.87636 14.0273 9.84403 14.0178C9.71537 13.9812 9.58223 13.9627 9.44846 13.9628C8.65636 13.9627 8.01172 14.6075 8.01172 15.3995ZM13.9307 11.9531H16.9678C17.5037 11.9531 17.9389 11.5179 17.9389 10.9819C17.9389 10.446 17.5037 10.0108 16.9678 10.0108C16.8771 10.0106 16.7869 10.0231 16.6997 10.0481C16.6673 10.0573 16.6332 10.059 16.6 10.053C16.5669 10.0469 16.5356 10.0333 16.5085 10.0132C16.4813 9.99296 16.4592 9.96672 16.4438 9.93653C16.4284 9.90633 16.4201 9.87298 16.4197 9.83909C16.4131 9.30935 15.9786 8.87891 15.4486 8.87891C14.9185 8.87891 14.4841 9.30935 14.4774 9.83909C14.4769 9.87307 14.4686 9.90647 14.4531 9.93672C14.4376 9.96697 14.4154 9.99326 14.3881 10.0136C14.3613 10.0338 14.3301 10.0474 14.297 10.0534C14.264 10.0594 14.23 10.0576 14.1977 10.0481C14.1109 10.0231 14.021 10.0106 13.9307 10.0108C13.3948 10.0108 12.9595 10.446 12.9595 10.9819C12.9595 11.5179 13.3948 11.9531 13.9307 11.9531Z" fill="#1B3D6D"/>
<path fill-rule="evenodd" clip-rule="evenodd" d="M14.8408 13.931C15.2736 14.2751 15.5514 14.806 15.5518 15.4007C15.5524 16.4348 14.7109 17.277 13.6768 17.277H11.3386C10.892 18.1976 10.6683 19.1724 10.6484 20.138C11.2694 20.0748 11.9087 20.0347 12.5283 20.0586C12.9825 20.076 13.7608 20.1351 14.0769 20.5174C14.2327 20.706 14.4475 20.8365 14.6865 20.8879C14.8859 20.9307 15.1129 20.9185 15.2948 20.8202C15.5862 20.6629 15.6202 20.3742 15.5304 20.0789C15.4642 19.8611 15.3861 19.5675 15.517 19.3588C15.6279 19.1821 15.8253 19.1501 16.015 19.1206C16.1746 19.0957 16.3182 19.0691 16.465 18.9968C16.6673 18.8971 16.8202 18.7368 16.944 18.551C17.1017 18.3141 17.2617 18.0761 17.4042 17.8298C17.519 17.6311 17.6375 17.4033 17.6915 17.1793C17.7917 16.7636 17.6285 16.4565 17.3498 16.1521C17.1108 15.8911 16.7895 15.5103 16.8112 15.1309C16.8274 14.8467 17.0195 14.6592 17.2127 14.4747C17.2387 14.45 17.2648 14.4255 17.2901 14.4002L17.3027 14.3876L17.3107 14.3716C17.4079 14.1774 17.2704 13.6767 17.176 13.3843C16.3717 13.4295 15.5815 13.6146 14.8408 13.931Z" fill="#1B3D6D"/>
<path fill-rule="evenodd" clip-rule="evenodd" d="M17.6715 15.8543C18.0526 16.2707 18.2508 16.7171 18.1168 17.2794C18.0573 17.5291 17.9409 17.7701 17.8151 17.9927C17.6604 18.2666 17.4824 18.5303 17.3081 18.792C17.1394 19.0453 16.9272 19.2581 16.6512 19.3915C16.4625 19.4827 16.2835 19.5186 16.0794 19.5522C16.0457 19.5577 16.0118 19.563 15.9781 19.5689L15.8753 19.5868L15.8879 19.6903C15.8982 19.7752 15.9234 19.8654 15.9482 19.9468C16.1002 20.4446 15.9714 20.9431 15.5002 21.2031C15.3175 21.3039 15.1132 21.3516 14.905 21.3516C14.8023 21.3516 14.6998 21.3408 14.5993 21.3196C14.2629 21.2486 13.9554 21.0643 13.7372 20.7983C13.5396 20.5576 12.7802 20.5088 12.5093 20.4986C11.8987 20.4755 11.2646 20.5193 10.6523 20.5813C10.7525 22.8669 11.9881 25.0458 14.1027 26.2667C16.0017 27.3632 18.2818 27.465 20.2323 26.6521C20.1762 26.6246 20.1202 26.5967 20.0645 26.5683C19.9284 26.4989 19.7907 26.4259 19.6616 26.3439C19.1436 26.0148 18.6476 26.102 18.0719 26.1851C17.6759 26.2423 17.2942 26.2911 16.8925 26.2911C16.6361 26.2911 16.3478 26.2556 16.1208 26.128C15.9346 26.0234 15.7981 25.8584 15.7751 25.6421C15.7697 25.5912 15.7708 25.54 15.7783 25.4893C15.8423 25.0578 16.3122 24.7936 16.6994 24.7074C16.7947 24.6862 16.8904 24.6675 16.9862 24.649C17.062 24.6343 17.1377 24.6194 17.2131 24.6033C17.4155 24.5601 17.851 24.4719 17.9414 24.26C18.0445 24.0184 17.7684 23.5502 17.6488 23.3614C17.4361 23.0254 17.2777 22.5914 17.5221 22.2289C17.7554 21.8826 18.2589 21.7719 18.6463 21.7342C18.6667 21.7322 18.6872 21.7304 18.7076 21.7288C18.8902 21.7144 19.0734 21.7113 19.2563 21.7195C19.3922 21.7254 19.5364 21.7363 19.6702 21.7617C20.0911 21.8412 20.5015 21.8937 20.9309 21.9026C21.5917 21.9164 22.2593 21.8283 22.8802 21.5959C23.1422 21.4979 23.4191 21.4523 23.6975 21.4476V17.12L23.6851 17.0962C23.0778 15.9249 22.1519 14.96 21.0093 14.3002C20.0392 13.7401 18.9499 13.4233 17.8305 13.379C17.7647 13.3764 17.6988 13.3747 17.6329 13.374C17.7623 13.796 17.8816 14.3693 17.6365 14.6693C17.6244 14.6841 17.6116 14.6982 17.5981 14.7116C17.5702 14.7392 17.5416 14.766 17.5135 14.7934C17.4253 14.8796 17.2543 15.0264 17.2471 15.1557C17.2355 15.3669 17.5439 15.7148 17.6715 15.8543Z" fill="#1B3D6D"/>
<path fill-rule="evenodd" clip-rule="evenodd" d="M17.8842 22.4754C17.7566 22.6633 17.9122 22.9584 18.0182 23.126C18.242 23.4801 18.525 24.0084 18.3425 24.4348C18.1573 24.8674 17.5868 24.9774 17.1755 25.0595L17.0694 25.0804C16.9761 25.0986 16.8828 25.1171 16.7899 25.1371C16.6355 25.1703 16.4765 25.2324 16.3546 25.3352C16.2847 25.3943 16.1976 25.495 16.2079 25.5938C16.2179 25.6898 16.3291 25.7491 16.409 25.7795C16.5559 25.8354 16.7341 25.8502 16.8899 25.8502C17.27 25.8502 17.6312 25.8032 18.006 25.7488C18.6955 25.6487 19.2701 25.5755 19.8941 25.9732C20.0163 26.051 20.1472 26.1203 20.2762 26.186C20.4319 26.2647 20.589 26.3403 20.7476 26.4127C21.2937 26.1304 21.799 25.7755 22.2497 25.3576C22.1657 25.0682 22.1232 24.7684 22.1235 24.467C22.1235 23.4469 22.6096 22.5007 23.4254 21.9082C23.2918 21.927 23.1607 21.9601 23.0342 22.0069C22.3658 22.2568 21.6476 22.3545 20.9361 22.3407C20.4801 22.3318 20.0364 22.2778 19.5891 22.1929C19.4716 22.1705 19.3406 22.1621 19.2212 22.1572C19.0442 22.1501 18.8647 22.1536 18.6884 22.1708C18.4547 22.1936 18.0277 22.2641 17.8842 22.4754ZM25.2883 23C24.479 23 23.8213 23.6578 23.8213 24.467C23.8213 25.2763 24.479 25.934 25.2883 25.934C26.0976 25.934 26.7554 25.2763 26.7554 24.467C26.7554 23.6584 26.0969 23 25.2883 23Z" fill="#1B3D6D"/>
<path fill-rule="evenodd" clip-rule="evenodd" d="M24.011 22.0574C23.117 22.5298 22.5625 23.4541 22.5625 24.4653C22.5625 25.9682 23.7848 27.1906 25.2878 27.1906C26.7907 27.1906 28.013 25.9682 28.013 24.4653C28.013 23.449 27.4524 22.527 26.5548 22.0522C26.5194 22.0337 26.4897 22.0058 26.4691 21.9716C26.4484 21.9374 26.4375 21.8981 26.4375 21.8582V14.6438C26.4375 14.0104 25.9212 13.4941 25.2878 13.4941C24.6543 13.4941 24.138 14.0104 24.138 14.6439V21.8582C24.1381 21.8949 24.1289 21.9312 24.1112 21.9635C24.0936 21.9957 24.068 22.023 24.037 22.0428C24.0287 22.0483 24.02 22.0531 24.011 22.0574ZM23.3812 24.4653C23.3812 23.4877 24.1193 22.6804 25.068 22.5713V15.7043C25.068 15.5823 25.1658 15.4845 25.2878 15.4845C25.4098 15.4845 25.5076 15.5823 25.5076 15.7043V22.5713C26.4563 22.6804 27.1944 23.4877 27.1944 24.4653C27.1944 25.5166 26.339 26.3719 25.2878 26.3719C24.2365 26.3719 23.3812 25.5167 23.3812 24.4653Z" fill="#1B3D6D"/>
</svg>
