<svg width="27" height="20" viewBox="0 0 27 20" fill="none" xmlns="http://www.w3.org/2000/svg">
<path d="M0 0H26.26V20H0V0Z" fill="black"/>
<mask id="mask0_3320_3555" style="mask-type:luminance" maskUnits="userSpaceOnUse" x="-1" y="0" width="28" height="20">
<path d="M-0.00390625 0H26.2561V20H-0.00390625V0Z" fill="white"/>
</mask>
<g mask="url(#mask0_3320_3555)">
<path d="M-0.00390625 18.4619H26.2561V20.0001H-0.00390625V18.4619Z" fill="#F32837"/>
</g>
<mask id="mask1_3320_3555" style="mask-type:luminance" maskUnits="userSpaceOnUse" x="-1" y="0" width="28" height="20">
<path d="M-0.00390625 0H26.2561V20H-0.00390625V0Z" fill="white"/>
</mask>
<g mask="url(#mask1_3320_3555)">
<path d="M-0.00390625 16.9233H26.2561V18.4617H-0.00390625V16.9233Z" fill="#FFF5F5"/>
</g>
<mask id="mask2_3320_3555" style="mask-type:luminance" maskUnits="userSpaceOnUse" x="-1" y="0" width="28" height="20">
<path d="M-0.00390625 0H26.2561V20H-0.00390625V0Z" fill="white"/>
</mask>
<g mask="url(#mask2_3320_3555)">
<path d="M-0.00390625 15.3862H26.2561V16.9236H-0.00390625V15.3862Z" fill="#F32837"/>
</g>
<mask id="mask3_3320_3555" style="mask-type:luminance" maskUnits="userSpaceOnUse" x="-1" y="0" width="28" height="20">
<path d="M-0.00390625 0H26.2561V20H-0.00390625V0Z" fill="white"/>
</mask>
<g mask="url(#mask3_3320_3555)">
<path d="M-0.00390625 13.8477H26.2561V15.3859H-0.00390625V13.8477Z" fill="#FFF5F5"/>
</g>
<mask id="mask4_3320_3555" style="mask-type:luminance" maskUnits="userSpaceOnUse" x="-1" y="0" width="28" height="20">
<path d="M-0.00390625 0H26.2561V20H-0.00390625V0Z" fill="white"/>
</mask>
<g mask="url(#mask4_3320_3555)">
<path d="M-0.00390625 12.3086H26.2561V13.848H-0.00390625V12.3086Z" fill="#F32837"/>
</g>
<mask id="mask5_3320_3555" style="mask-type:luminance" maskUnits="userSpaceOnUse" x="-1" y="0" width="28" height="20">
<path d="M-0.00390625 0H26.2561V20H-0.00390625V0Z" fill="white"/>
</mask>
<g mask="url(#mask5_3320_3555)">
<path d="M-0.00390625 10.7715H26.2561V12.3087H-0.00390625V10.7715Z" fill="#FFF5F5"/>
</g>
<mask id="mask6_3320_3555" style="mask-type:luminance" maskUnits="userSpaceOnUse" x="-1" y="0" width="28" height="20">
<path d="M-0.00390625 0H26.2561V20H-0.00390625V0Z" fill="white"/>
</mask>
<g mask="url(#mask6_3320_3555)">
<path d="M-0.00390625 9.23096H26.2561V10.7713H-0.00390625V9.23096Z" fill="#F32837"/>
</g>
<mask id="mask7_3320_3555" style="mask-type:luminance" maskUnits="userSpaceOnUse" x="-1" y="0" width="28" height="20">
<path d="M-0.00390625 0H26.2561V20H-0.00390625V0Z" fill="white"/>
</mask>
<g mask="url(#mask7_3320_3555)">
<path d="M-0.00390625 7.69385H26.2561V9.23118H-0.00390625V7.69385Z" fill="#FFF5F5"/>
</g>
<mask id="mask8_3320_3555" style="mask-type:luminance" maskUnits="userSpaceOnUse" x="-1" y="0" width="28" height="20">
<path d="M-0.00390625 0H26.2561V20H-0.00390625V0Z" fill="white"/>
</mask>
<g mask="url(#mask8_3320_3555)">
<path d="M-0.00390625 6.15527H26.2561V7.69365H-0.00390625V6.15527Z" fill="#F32837"/>
</g>
<mask id="mask9_3320_3555" style="mask-type:luminance" maskUnits="userSpaceOnUse" x="-1" y="0" width="28" height="20">
<path d="M-0.00390625 0H26.2561V20H-0.00390625V0Z" fill="white"/>
</mask>
<g mask="url(#mask9_3320_3555)">
<path d="M-0.00390625 4.61621H26.2561V6.15548H-0.00390625V4.61621Z" fill="#FFF5F5"/>
</g>
<mask id="mask10_3320_3555" style="mask-type:luminance" maskUnits="userSpaceOnUse" x="-1" y="0" width="28" height="20">
<path d="M-0.00390625 0H26.2561V20H-0.00390625V0Z" fill="white"/>
</mask>
<g mask="url(#mask10_3320_3555)">
<path d="M-0.00390625 3.07764H26.2561V4.61602H-0.00390625V3.07764Z" fill="#F32837"/>
</g>
<mask id="mask11_3320_3555" style="mask-type:luminance" maskUnits="userSpaceOnUse" x="-1" y="0" width="28" height="20">
<path d="M-0.00390625 0H26.2561V20H-0.00390625V0Z" fill="white"/>
</mask>
<g mask="url(#mask11_3320_3555)">
<path d="M-0.00390625 1.53955H26.2561V3.07778H-0.00390625V1.53955Z" fill="#FFF5F5"/>
</g>
<mask id="mask12_3320_3555" style="mask-type:luminance" maskUnits="userSpaceOnUse" x="-1" y="0" width="28" height="20">
<path d="M-0.00390625 0H26.2561V20H-0.00390625V0Z" fill="white"/>
</mask>
<g mask="url(#mask12_3320_3555)">
<path d="M-0.00390625 0H26.2561V1.53937H-0.00390625V0Z" fill="#F32837"/>
</g>
<mask id="mask13_3320_3555" style="mask-type:luminance" maskUnits="userSpaceOnUse" x="-1" y="0" width="28" height="20">
<path d="M-0.00390625 0H26.2561V20H-0.00390625V0Z" fill="white"/>
</mask>
<g mask="url(#mask13_3320_3555)">
<path d="M-0.00390625 0H11.9885V10.7712H-0.00390625V0Z" fill="#2A3560"/>
</g>
<path d="M1.08023 1.18701L1.18263 1.59505H1.51115L1.24525 1.84643L1.34617 2.25352L1.08023 2.00215L0.814359 2.25352L0.918286 1.84643L0.652344 1.59505H0.97782L1.08023 1.18701ZM1.08023 2.98576L1.18263 3.39176H1.51115L1.24525 3.64215L1.34617 4.05113L1.08023 3.79886L0.814359 4.05113L0.918286 3.64215L0.652344 3.39176H0.97782L1.08023 2.98576ZM1.08023 4.78341L1.18263 5.18947H1.51115L1.24525 5.4409L1.34617 5.84888L1.08023 5.59646L0.814359 5.84888L0.918286 5.4409L0.652344 5.18947H0.97782L1.08023 4.78341ZM1.08023 6.58012L1.18263 6.98811H1.51115L1.24525 7.23949L1.34617 7.6456L1.08023 7.39521L0.814359 7.6456L0.918286 7.23949L0.652344 6.98811H0.97782L1.08023 6.58012ZM1.08023 8.37783L1.18263 8.78686H1.51115L1.24525 9.0362L1.34617 9.4433L1.08023 9.19192L0.814359 9.4433L0.918286 9.0362L0.652344 8.78686H0.97782L1.08023 8.37783ZM2.03988 2.13382L2.13768 2.54181H2.46768L2.20341 2.79423L2.3027 3.20018L2.03988 2.9498L1.77553 3.20018L1.87482 2.79423L1.61044 2.54181H1.93903L2.03988 2.13382ZM2.03988 3.93247L2.13768 4.33852H2.46768L2.20341 4.59094L2.3027 4.9969L2.03988 4.74755L1.77553 4.9969L1.87482 4.59094L1.61044 4.33852H1.93903L2.03988 3.93247ZM2.03988 5.73017L2.13768 6.13717H2.46768L2.20341 6.38855L2.3027 6.79564L2.03988 6.54426L1.77553 6.79564L1.87482 6.38855L1.61044 6.13717H1.93903L2.03988 5.73017ZM2.03988 7.52882L2.13768 7.93487H2.46768L2.20341 8.1863L2.3027 8.59235L2.03988 8.33993L1.77553 8.59235L1.87482 8.1863L1.61044 7.93487H1.93903L2.03988 7.52882ZM3.0087 1.18701L3.11103 1.59505H3.43955L3.17372 1.84643L3.27605 2.25352L3.0087 2.00215L2.74584 2.25352L2.84668 1.84643L2.58082 1.59505H2.90777L3.0087 1.18701ZM3.0087 2.98576L3.11103 3.39176H3.43955L3.17372 3.64215L3.27605 4.05113L3.0087 3.79886L2.74584 4.05113L2.84668 3.64215L2.58082 3.39176H2.90777L3.0087 2.98576ZM3.0087 4.78341L3.11103 5.18947H3.43955L3.17372 5.4409L3.27605 5.84888L3.0087 5.59646L2.74584 5.84888L2.84668 5.4409L2.58082 5.18947H2.90777L3.0087 4.78341ZM3.0087 6.58012L3.11103 6.98811H3.43955L3.17372 7.23949L3.27605 7.6456L3.0087 7.39521L2.74584 7.6456L2.84668 7.23949L2.58082 6.98811H2.90777L3.0087 6.58012ZM3.0087 8.37783L3.11103 8.78686H3.43955L3.17372 9.0362L3.27605 9.4433L3.0087 9.19192L2.74584 9.4433L2.84668 9.0362L2.58082 8.78686H2.90777L3.0087 8.37783ZM3.96827 2.13382L4.06912 2.54181H4.3992L4.13181 2.79423L4.23421 3.20018L3.96827 2.9498L3.70393 3.20018L3.80633 2.79423L3.53891 2.54181H3.86743L3.96827 2.13382ZM3.96827 3.93247L4.06912 4.33852H4.3992L4.13181 4.59094L4.23421 4.9969L3.96827 4.74755L3.70393 4.9969L3.80633 4.59094L3.53891 4.33852H3.86743L3.96827 3.93247ZM3.96827 5.73017L4.06912 6.13717H4.3992L4.13181 6.38855L4.23421 6.79564L3.96827 6.54426L3.70393 6.79564L3.80633 6.38855L3.53891 6.13717H3.86743L3.96827 5.73017ZM3.96827 7.52882L4.06912 7.93487H4.3992L4.13181 8.1863L4.23421 8.59235L3.96827 8.33993L3.70393 8.59235L3.80633 8.1863L3.53891 7.93487H3.86743L3.96827 7.52882ZM4.94014 1.18701L5.04254 1.59505H5.36802L5.10211 1.84643L5.20756 2.25352L4.94014 2.00215L4.67431 2.25352L4.77515 1.84643L4.51225 1.59505H4.83929L4.94014 1.18701ZM4.94014 2.98576L5.04254 3.39176H5.36802L5.10211 3.64215L5.20756 4.05113L4.94014 3.79886L4.67431 4.05113L4.77515 3.64215L4.51225 3.39176H4.83929L4.94014 2.98576ZM4.94014 4.78341L5.04254 5.18947H5.36802L5.10211 5.4409L5.20756 5.84888L4.94014 5.59646L4.67431 5.84888L4.77515 5.4409L4.51225 5.18947H4.83929L4.94014 4.78341ZM4.94014 6.58012L5.04254 6.98811H5.36802L5.10211 7.23949L5.20756 7.6456L4.94014 7.39521L4.67431 7.6456L4.77515 7.23949L4.51225 6.98811H4.83929L4.94014 6.58012ZM4.94014 8.37783L5.04254 8.78686H5.36802L5.10211 9.0362L5.20756 9.4433L4.94014 9.19192L4.67431 9.4433L4.77515 9.0362L4.51225 8.78686H4.83929L4.94014 8.37783ZM5.89982 2.13382L6.00067 2.54181H6.32759L6.06325 2.79423L6.16261 3.20018L5.89982 2.9498L5.63544 3.20018L5.73473 2.79423L5.47035 2.54181H5.79738L5.89982 2.13382ZM5.89982 3.93247L6.00067 4.33852H6.32759L6.06325 4.59094L6.16261 4.9969L5.89982 4.74755L5.63544 4.9969L5.73473 4.59094L5.47035 4.33852H5.79738L5.89982 3.93247ZM5.89982 5.73017L6.00067 6.13717H6.32759L6.06325 6.38855L6.16261 6.79564L5.89982 6.54426L5.63544 6.79564L5.73473 6.38855L5.47035 6.13717H5.79738L5.89982 5.73017ZM5.89982 7.52882L6.00067 7.93487H6.32759L6.06325 8.1863L6.16261 8.59235L5.89982 8.33993L5.63544 8.59235L5.73473 8.1863L5.47035 7.93487H5.79738L5.89982 7.52882ZM6.86853 1.18701L6.97094 1.59505H7.29797L7.03363 1.84643L7.13596 2.25352L6.86853 2.00215L6.60575 2.25352L6.70511 1.84643L6.44072 1.59505H6.76768L6.86853 1.18701ZM6.86853 2.98576L6.97094 3.39176H7.29797L7.03363 3.64215L7.13596 4.05113L6.86853 3.79886L6.60575 4.05113L6.70511 3.64215L6.44072 3.39176H6.76768L6.86853 2.98576ZM6.86853 4.78341L6.97094 5.18947H7.29797L7.03363 5.4409L7.13596 5.84888L6.86853 5.59646L6.60575 5.84888L6.70511 5.4409L6.44072 5.18947H6.76768L6.86853 4.78341ZM6.86853 6.58012L6.97094 6.98811H7.29797L7.03363 7.23949L7.13596 7.6456L6.86853 7.39521L6.60575 7.6456L6.70511 7.23949L6.44072 6.98811H6.76768L6.86853 6.58012ZM6.86853 8.37783L6.97094 8.78686H7.29797L7.03363 9.0362L7.13596 9.4433L6.86853 9.19192L6.60575 9.4433L6.70511 9.0362L6.44072 8.78686H6.76768L6.86853 8.37783ZM7.82822 2.13382L7.92907 2.54181H8.25914L7.9932 2.79423L8.09412 3.20018L7.82822 2.9498L7.56384 3.20018L7.66624 2.79423L7.40034 2.54181H7.72893L7.82822 2.13382ZM7.82822 3.93247L7.92907 4.33852H8.25914L7.9932 4.59094L8.09412 4.9969L7.82822 4.74755L7.56384 4.9969L7.66624 4.59094L7.40034 4.33852H7.72893L7.82822 3.93247ZM7.82822 5.73017L7.92907 6.13717H8.25914L7.9932 6.38855L8.09412 6.79564L7.82822 6.54426L7.56384 6.79564L7.66624 6.38855L7.40034 6.13717H7.72893L7.82822 5.73017ZM7.82822 7.52882L7.92907 7.93487H8.25914L7.9932 8.1863L8.09412 8.59235L7.82822 8.33993L7.56384 8.59235L7.66624 8.1863L7.40034 7.93487H7.72893L7.82822 7.52882ZM8.80008 1.18701L8.90249 1.59505H9.22945L8.96507 1.84643L9.06443 2.25352L8.80008 2.00215L8.53726 2.25352L8.63655 1.84643L8.3722 1.59505H8.6992L8.80008 1.18701ZM8.80008 2.98576L8.90249 3.39176H9.22945L8.96507 3.64215L9.06443 4.05113L8.80008 3.79886L8.53726 4.05113L8.63655 3.64215L8.3722 3.39176H8.6992L8.80008 2.98576ZM8.80008 4.78341L8.90249 5.18947H9.22945L8.96507 5.4409L9.06443 5.84888L8.80008 5.59646L8.53726 5.84888L8.63655 5.4409L8.3722 5.18947H8.6992L8.80008 4.78341ZM8.80008 6.58012L8.90249 6.98811H9.22945L8.96507 7.23949L9.06443 7.6456L8.80008 7.39521L8.53726 7.6456L8.63655 7.23949L8.3722 6.98811H8.6992L8.80008 6.58012ZM8.80008 8.37783L8.90249 8.78686H9.22945L8.96507 9.0362L9.06443 9.4433L8.80008 9.19192L8.53726 9.4433L8.63655 9.0362L8.3722 8.78686H8.6992L8.80008 8.37783ZM9.75974 2.13382L9.85902 2.54181H10.1875L9.92472 2.79423L10.0225 3.20018L9.75974 2.9498L9.49231 3.20018L9.59464 2.79423L9.33185 2.54181H9.65733L9.75974 2.13382ZM9.75974 3.93247L9.85902 4.33852H10.1875L9.92472 4.59094L10.0225 4.9969L9.75974 4.74755L9.49231 4.9969L9.59464 4.59094L9.33185 4.33852H9.65733L9.75974 3.93247ZM9.75974 5.73017L9.85902 6.13717H10.1875L9.92472 6.38855L10.0225 6.79564L9.75974 6.54426L9.49231 6.79564L9.59464 6.38855L9.33185 6.13717H9.65733L9.75974 5.73017ZM9.75974 7.52882L9.85902 7.93487H10.1875L9.92472 8.1863L10.0225 8.59235L9.75974 8.33993L9.49231 8.59235L9.59464 8.1863L9.33185 7.93487H9.65733L9.75974 7.52882ZM10.7285 1.18701L10.8324 1.59505H11.1579L10.8935 1.84643L10.9959 2.25352L10.7285 2.00215L10.4657 2.25352L10.565 1.84643L10.3007 1.59505H10.6276L10.7285 1.18701ZM10.7285 2.98576L10.8324 3.39176H11.1579L10.8935 3.64215L10.9959 4.05113L10.7285 3.79886L10.4657 4.05113L10.565 3.64215L10.3007 3.39176H10.6276L10.7285 2.98576ZM10.7285 4.78341L10.8324 5.18947H11.1579L10.8935 5.4409L10.9959 5.84888L10.7285 5.59646L10.4657 5.84888L10.565 5.4409L10.3007 5.18947H10.6276L10.7285 4.78341ZM10.7285 6.58012L10.8324 6.98811H11.1579L10.8935 7.23949L10.9959 7.6456L10.7285 7.39521L10.4657 7.6456L10.565 7.23949L10.3007 6.98811H10.6276L10.7285 6.58012ZM10.7285 8.37783L10.8324 8.78686H11.1579L10.8935 9.0362L10.9959 9.4433L10.7285 9.19192L10.4657 9.4433L10.565 9.0362L10.3007 8.78686H10.6276L10.7285 8.37783Z" fill="#FFF5F5"/>
</svg>
